<svg width="162" height="40" viewBox="0 0 162 40" fill="none" xmlns="http://www.w3.org/2000/svg">
<rect width="162" height="40" rx="4" fill="#121D28"/>
<path d="M23.2614 26H21.3977L25.5852 14.3636H27.6136L31.8011 26H29.9375L26.6477 16.4773H26.5568L23.2614 26ZM23.5739 21.4432H29.6193V22.9205H23.5739V21.4432ZM36.8807 26.1761C36.036 26.1761 35.3087 25.9848 34.6989 25.6023C34.0928 25.2159 33.6269 24.6837 33.3011 24.0057C32.9754 23.3277 32.8125 22.5511 32.8125 21.6761C32.8125 20.7898 32.9792 20.0076 33.3125 19.3295C33.6458 18.6477 34.1155 18.1155 34.7216 17.733C35.3277 17.3504 36.0417 17.1591 36.8636 17.1591C37.5265 17.1591 38.1174 17.2822 38.6364 17.5284C39.1553 17.7708 39.5739 18.1117 39.892 18.5511C40.214 18.9905 40.4053 19.5038 40.4659 20.0909H38.8125C38.7216 19.6818 38.5133 19.3295 38.1875 19.0341C37.8655 18.7386 37.4337 18.5909 36.892 18.5909C36.4186 18.5909 36.0038 18.7159 35.6477 18.9659C35.2955 19.2121 35.0208 19.5644 34.8239 20.0227C34.6269 20.4773 34.5284 21.0152 34.5284 21.6364C34.5284 22.2727 34.625 22.822 34.8182 23.2841C35.0114 23.7462 35.2841 24.1042 35.6364 24.358C35.9924 24.6117 36.411 24.7386 36.892 24.7386C37.214 24.7386 37.5057 24.6799 37.767 24.5625C38.0322 24.4413 38.2538 24.2689 38.4318 24.0455C38.6136 23.822 38.7405 23.553 38.8125 23.2386H40.4659C40.4053 23.803 40.2216 24.3068 39.9148 24.75C39.608 25.1932 39.197 25.5417 38.6818 25.7955C38.1705 26.0492 37.5701 26.1761 36.8807 26.1761ZM46.044 26.1761C45.1842 26.1761 44.4437 25.9924 43.8224 25.625C43.205 25.2538 42.7277 24.733 42.3906 24.0625C42.0573 23.3883 41.8906 22.5985 41.8906 21.6932C41.8906 20.7992 42.0573 20.0114 42.3906 19.3295C42.7277 18.6477 43.1974 18.1155 43.7997 17.733C44.4058 17.3504 45.1141 17.1591 45.9247 17.1591C46.4171 17.1591 46.8944 17.2405 47.3565 17.4034C47.8187 17.5663 48.2334 17.822 48.6009 18.1705C48.9683 18.5189 49.258 18.9716 49.4702 19.5284C49.6823 20.0814 49.7884 20.7538 49.7884 21.5455V22.1477H42.8509V20.875H48.1236C48.1236 20.428 48.0327 20.0322 47.8509 19.6875C47.669 19.339 47.4134 19.0644 47.0838 18.8636C46.758 18.6629 46.3755 18.5625 45.9361 18.5625C45.4588 18.5625 45.0421 18.6799 44.6861 18.9148C44.3338 19.1458 44.0611 19.4489 43.8679 19.8239C43.6785 20.1951 43.5838 20.5985 43.5838 21.0341V22.0284C43.5838 22.6117 43.6861 23.108 43.8906 23.517C44.099 23.9261 44.3887 24.2386 44.7599 24.4545C45.1312 24.6667 45.5649 24.7727 46.0611 24.7727C46.383 24.7727 46.6766 24.7273 46.9418 24.6364C47.2069 24.5417 47.4361 24.4015 47.6293 24.2159C47.8224 24.0303 47.9702 23.8011 48.0724 23.5284L49.6804 23.8182C49.5516 24.2917 49.3205 24.7064 48.9872 25.0625C48.6577 25.4148 48.2429 25.6894 47.7429 25.8864C47.2467 26.0795 46.6804 26.1761 46.044 26.1761ZM58.2131 19.4034L56.6733 19.6761C56.6089 19.4792 56.5066 19.2917 56.3665 19.1136C56.2301 18.9356 56.0445 18.7898 55.8097 18.6761C55.5748 18.5625 55.2813 18.5057 54.929 18.5057C54.4479 18.5057 54.0464 18.6136 53.7244 18.8295C53.4025 19.0417 53.2415 19.3163 53.2415 19.6534C53.2415 19.9451 53.3494 20.1799 53.5653 20.358C53.7813 20.536 54.1297 20.6818 54.6108 20.7955L55.9972 21.1136C56.8002 21.2992 57.3987 21.5852 57.7926 21.9716C58.1866 22.358 58.3835 22.8598 58.3835 23.4773C58.3835 24 58.232 24.4659 57.929 24.875C57.6297 25.2803 57.2112 25.5985 56.6733 25.8295C56.1392 26.0606 55.5199 26.1761 54.8153 26.1761C53.8381 26.1761 53.0407 25.9678 52.4233 25.5511C51.8059 25.1307 51.4271 24.5341 51.2869 23.7614L52.929 23.5114C53.0313 23.9394 53.2415 24.2633 53.5597 24.483C53.8778 24.6989 54.2926 24.8068 54.804 24.8068C55.3608 24.8068 55.8059 24.6913 56.1392 24.4602C56.4725 24.2254 56.6392 23.9394 56.6392 23.6023C56.6392 23.3295 56.5369 23.1004 56.3324 22.9148C56.1316 22.7292 55.8229 22.589 55.4062 22.4943L53.929 22.1705C53.1146 21.9848 52.5123 21.6894 52.1222 21.2841C51.7358 20.8788 51.5426 20.3655 51.5426 19.7443C51.5426 19.2292 51.6866 18.7784 51.9744 18.392C52.2623 18.0057 52.66 17.7045 53.1676 17.4886C53.6752 17.2689 54.2566 17.1591 54.9119 17.1591C55.8551 17.1591 56.5975 17.3636 57.1392 17.7727C57.6809 18.178 58.0388 18.7216 58.2131 19.4034ZM66.7912 19.4034L65.2514 19.6761C65.187 19.4792 65.0848 19.2917 64.9446 19.1136C64.8082 18.9356 64.6226 18.7898 64.3878 18.6761C64.1529 18.5625 63.8594 18.5057 63.5071 18.5057C63.026 18.5057 62.6245 18.6136 62.3026 18.8295C61.9806 19.0417 61.8196 19.3163 61.8196 19.6534C61.8196 19.9451 61.9276 20.1799 62.1435 20.358C62.3594 20.536 62.7079 20.6818 63.1889 20.7955L64.5753 21.1136C65.3783 21.2992 65.9768 21.5852 66.3707 21.9716C66.7647 22.358 66.9616 22.8598 66.9616 23.4773C66.9616 24 66.8101 24.4659 66.5071 24.875C66.2079 25.2803 65.7893 25.5985 65.2514 25.8295C64.7173 26.0606 64.098 26.1761 63.3935 26.1761C62.4162 26.1761 61.6188 25.9678 61.0014 25.5511C60.384 25.1307 60.0052 24.5341 59.8651 23.7614L61.5071 23.5114C61.6094 23.9394 61.8196 24.2633 62.1378 24.483C62.456 24.6989 62.8707 24.8068 63.3821 24.8068C63.9389 24.8068 64.384 24.6913 64.7173 24.4602C65.0507 24.2254 65.2173 23.9394 65.2173 23.6023C65.2173 23.3295 65.1151 23.1004 64.9105 22.9148C64.7098 22.7292 64.401 22.589 63.9844 22.4943L62.5071 22.1705C61.6927 21.9848 61.0904 21.6894 60.7003 21.2841C60.3139 20.8788 60.1207 20.3655 60.1207 19.7443C60.1207 19.2292 60.2647 18.7784 60.5526 18.392C60.8404 18.0057 61.2382 17.7045 61.7457 17.4886C62.2533 17.2689 62.8348 17.1591 63.4901 17.1591C64.4332 17.1591 65.1757 17.3636 65.7173 17.7727C66.259 18.178 66.617 18.7216 66.7912 19.4034ZM73.0639 29.2727V17.2727H74.723V18.6875H74.8651C74.9635 18.5057 75.1056 18.2955 75.2912 18.0568C75.4768 17.8182 75.7344 17.6098 76.0639 17.4318C76.3935 17.25 76.8291 17.1591 77.3707 17.1591C78.0753 17.1591 78.7041 17.3371 79.2571 17.6932C79.8101 18.0492 80.2438 18.5625 80.5582 19.233C80.8764 19.9034 81.0355 20.7102 81.0355 21.6534C81.0355 22.5966 80.8783 23.4053 80.5639 24.0795C80.2495 24.75 79.8177 25.267 79.2685 25.6307C78.7192 25.9905 78.0923 26.1705 77.3878 26.1705C76.8575 26.1705 76.4238 26.0814 76.0866 25.9034C75.7533 25.7254 75.492 25.517 75.3026 25.2784C75.1132 25.0398 74.9673 24.8277 74.8651 24.642H74.7628V29.2727H73.0639ZM74.7287 21.6364C74.7287 22.25 74.8177 22.7879 74.9957 23.25C75.1738 23.7121 75.4313 24.0739 75.7685 24.3352C76.1056 24.5928 76.5185 24.7216 77.0071 24.7216C77.5147 24.7216 77.9389 24.5871 78.2798 24.3182C78.6207 24.0455 78.8783 23.6761 79.0526 23.2102C79.2306 22.7443 79.3196 22.2197 79.3196 21.6364C79.3196 21.0606 79.2325 20.5436 79.0582 20.0852C78.8878 19.6269 78.6302 19.2652 78.2855 19C77.9446 18.7348 77.5185 18.6023 77.0071 18.6023C76.5147 18.6023 76.098 18.7292 75.7571 18.983C75.42 19.2367 75.1643 19.5909 74.9901 20.0455C74.8158 20.5 74.7287 21.0303 74.7287 21.6364ZM84.6378 14.3636V26H82.9389V14.3636H84.6378ZM89.4631 26.1932C88.91 26.1932 88.41 26.0909 87.9631 25.8864C87.5161 25.678 87.1619 25.3769 86.9006 24.983C86.643 24.589 86.5142 24.1061 86.5142 23.5341C86.5142 23.0417 86.6089 22.6364 86.7983 22.3182C86.9877 22 87.2434 21.7481 87.5653 21.5625C87.8873 21.3769 88.2472 21.2367 88.6449 21.142C89.0426 21.0473 89.4479 20.9754 89.8608 20.9261C90.3835 20.8655 90.8078 20.8163 91.1335 20.7784C91.4593 20.7367 91.696 20.6705 91.8438 20.5795C91.9915 20.4886 92.0653 20.3409 92.0653 20.1364V20.0966C92.0653 19.6004 91.9252 19.2159 91.6449 18.9432C91.3684 18.6705 90.9555 18.5341 90.4062 18.5341C89.8343 18.5341 89.3835 18.661 89.054 18.9148C88.7282 19.1648 88.5028 19.4432 88.3778 19.75L86.7812 19.3864C86.9706 18.8561 87.2472 18.428 87.6108 18.1023C87.9782 17.7727 88.4006 17.5341 88.8778 17.3864C89.3551 17.2348 89.857 17.1591 90.3835 17.1591C90.732 17.1591 91.1013 17.2008 91.4915 17.2841C91.8854 17.3636 92.2528 17.5114 92.5938 17.7273C92.9384 17.9432 93.2206 18.2519 93.4403 18.6534C93.66 19.0511 93.7699 19.5682 93.7699 20.2045V26H92.1108V24.8068H92.0426C91.9328 25.0265 91.768 25.2424 91.5483 25.4545C91.3286 25.6667 91.0464 25.8428 90.7017 25.983C90.357 26.1231 89.9441 26.1932 89.4631 26.1932ZM89.8324 24.8295C90.3021 24.8295 90.7036 24.7367 91.0369 24.5511C91.3741 24.3655 91.6297 24.1231 91.804 23.8239C91.982 23.5208 92.071 23.197 92.071 22.8523V21.7273C92.0104 21.7879 91.893 21.8447 91.7188 21.8977C91.5483 21.947 91.3532 21.9905 91.1335 22.0284C90.9138 22.0625 90.6998 22.0947 90.4915 22.125C90.2831 22.1515 90.1089 22.1742 89.9688 22.1932C89.6392 22.2348 89.3381 22.3049 89.0653 22.4034C88.7964 22.5019 88.5805 22.6439 88.4176 22.8295C88.2585 23.0114 88.179 23.2538 88.179 23.5568C88.179 23.9773 88.3343 24.2955 88.6449 24.5114C88.9555 24.7235 89.3513 24.8295 89.8324 24.8295ZM100.107 17.2727V18.6364H95.3395V17.2727H100.107ZM96.6179 15.1818H98.3168V23.4375C98.3168 23.767 98.366 24.0152 98.4645 24.1818C98.563 24.3447 98.6899 24.4564 98.8452 24.517C99.0043 24.5739 99.1766 24.6023 99.3622 24.6023C99.4986 24.6023 99.6179 24.5928 99.7202 24.5739C99.8224 24.5549 99.902 24.5398 99.9588 24.5284L100.266 25.9318C100.167 25.9697 100.027 26.0076 99.8452 26.0455C99.6634 26.0871 99.4361 26.1098 99.1634 26.1136C98.7164 26.1212 98.2997 26.0417 97.9134 25.875C97.527 25.7083 97.2145 25.4508 96.9759 25.1023C96.7372 24.7538 96.6179 24.3163 96.6179 23.7898V15.1818ZM106.139 17.2727V18.6364H101.207V17.2727H106.139ZM102.56 26V16.2614C102.56 15.7159 102.679 15.2633 102.918 14.9034C103.156 14.5398 103.473 14.2689 103.866 14.0909C104.26 13.9091 104.688 13.8182 105.151 13.8182C105.491 13.8182 105.783 13.8466 106.026 13.9034C106.268 13.9564 106.448 14.0057 106.565 14.0511L106.168 15.4261C106.088 15.4034 105.986 15.3769 105.861 15.3466C105.736 15.3125 105.584 15.2955 105.406 15.2955C104.993 15.2955 104.698 15.3977 104.52 15.6023C104.346 15.8068 104.259 16.1023 104.259 16.4886V26H102.56ZM111.224 26.1761C110.406 26.1761 109.692 25.9886 109.082 25.6136C108.473 25.2386 107.999 24.714 107.662 24.0398C107.325 23.3655 107.156 22.5777 107.156 21.6761C107.156 20.7708 107.325 19.9792 107.662 19.3011C107.999 18.6231 108.473 18.0966 109.082 17.7216C109.692 17.3466 110.406 17.1591 111.224 17.1591C112.043 17.1591 112.757 17.3466 113.366 17.7216C113.976 18.0966 114.45 18.6231 114.787 19.3011C115.124 19.9792 115.293 20.7708 115.293 21.6761C115.293 22.5777 115.124 23.3655 114.787 24.0398C114.45 24.714 113.976 25.2386 113.366 25.6136C112.757 25.9886 112.043 26.1761 111.224 26.1761ZM111.23 24.75C111.76 24.75 112.2 24.6098 112.548 24.3295C112.897 24.0492 113.154 23.6761 113.321 23.2102C113.491 22.7443 113.577 22.2311 113.577 21.6705C113.577 21.1136 113.491 20.6023 113.321 20.1364C113.154 19.6667 112.897 19.2898 112.548 19.0057C112.2 18.7216 111.76 18.5795 111.23 18.5795C110.696 18.5795 110.253 18.7216 109.901 19.0057C109.552 19.2898 109.293 19.6667 109.122 20.1364C108.955 20.6023 108.872 21.1136 108.872 21.6705C108.872 22.2311 108.955 22.7443 109.122 23.2102C109.293 23.6761 109.552 24.0492 109.901 24.3295C110.253 24.6098 110.696 24.75 111.23 24.75ZM117.189 26V17.2727H118.831V18.6591H118.922C119.081 18.1894 119.361 17.8201 119.763 17.5511C120.168 17.2784 120.626 17.142 121.138 17.142C121.244 17.142 121.369 17.1458 121.513 17.1534C121.661 17.161 121.776 17.1705 121.859 17.1818V18.8068C121.791 18.7879 121.67 18.767 121.496 18.7443C121.321 18.7178 121.147 18.7045 120.973 18.7045C120.571 18.7045 120.214 18.7898 119.899 18.9602C119.589 19.1269 119.342 19.3598 119.161 19.6591C118.979 19.9545 118.888 20.2917 118.888 20.6705V26H117.189ZM123.33 26V17.2727H124.96V18.6932H125.068C125.25 18.2121 125.547 17.8371 125.96 17.5682C126.373 17.2955 126.867 17.1591 127.443 17.1591C128.027 17.1591 128.515 17.2955 128.909 17.5682C129.307 17.8409 129.6 18.2159 129.79 18.6932H129.881C130.089 18.2273 130.42 17.8561 130.875 17.5795C131.33 17.2992 131.871 17.1591 132.5 17.1591C133.292 17.1591 133.938 17.4072 134.438 17.9034C134.941 18.3996 135.193 19.1477 135.193 20.1477V26H133.494V20.3068C133.494 19.7159 133.333 19.2879 133.011 19.0227C132.689 18.7576 132.305 18.625 131.858 18.625C131.305 18.625 130.875 18.7955 130.568 19.1364C130.261 19.4735 130.108 19.9072 130.108 20.4375V26H128.415V20.1989C128.415 19.7254 128.267 19.3447 127.972 19.0568C127.676 18.7689 127.292 18.625 126.818 18.625C126.496 18.625 126.199 18.7102 125.926 18.8807C125.657 19.0473 125.439 19.2803 125.273 19.5795C125.11 19.8788 125.028 20.2254 125.028 20.6193V26H123.33Z" fill="#DFFE00"/>
</svg>
