<svg width="35" height="36" viewBox="0 0 35 36" fill="none" xmlns="http://www.w3.org/2000/svg">
<path d="M-0.00830078 17.2102C-0.00830078 9.29056 -0.00830078 5.33076 2.40376 2.87046C4.81582 0.410156 8.69798 0.410156 16.4623 0.410156H18.5211C26.2854 0.410156 30.1676 0.410156 32.5796 2.87046C34.9917 5.33076 34.9917 9.29056 34.9917 17.2102V18.6102C34.9917 26.5298 34.9917 30.4896 32.5796 32.9499C30.1676 35.4102 26.2854 35.4102 18.5211 35.4102H16.4623C8.69798 35.4102 4.81582 35.4102 2.40376 32.9499C-0.00830078 30.4896 -0.00830078 26.5298 -0.00830078 18.6102V17.2102Z" fill="#805BEB" fill-opacity="0.15"/>
<path fill-rule="evenodd" clip-rule="evenodd" d="M8.36659 17.02C13.7353 14.1976 17.3153 12.3368 19.1065 11.4378C24.2209 8.87093 25.2836 8.42504 25.9763 8.41031C26.1286 8.40707 26.4693 8.45263 26.6899 8.66868C26.8762 8.8511 26.9275 9.09753 26.952 9.27048C26.9765 9.44344 27.0071 9.83744 26.9828 10.1453C26.7057 13.6592 25.5064 22.1864 24.8963 26.1219C24.6382 27.7872 24.1299 28.3456 23.6378 28.4002C22.5683 28.519 21.7562 27.5474 20.7204 26.7281C19.0995 25.446 18.1838 24.6479 16.6105 23.3968C14.7922 21.951 15.9709 21.1563 17.0071 19.8576C17.2783 19.5178 21.9904 14.346 22.0816 13.8768C22.093 13.8182 22.1036 13.5994 21.9959 13.484C21.8882 13.3685 21.7293 13.408 21.6146 13.4394C21.4521 13.4839 18.8627 15.5491 13.8466 19.6349C13.1116 20.2439 12.4459 20.5406 11.8494 20.525C11.1918 20.5079 9.92698 20.0764 8.98668 19.7076C7.83336 19.2552 6.91673 19.016 6.99654 18.2478C7.03812 17.8476 7.4948 17.4384 8.36659 17.02Z" fill="url(#paint0_linear_1312_5749)"/>
<defs>
<linearGradient id="paint0_linear_1312_5749" x1="26.6602" y1="8.54349" x2="13.5286" y2="20.3819" gradientUnits="userSpaceOnUse">
<stop stop-color="#4EAF90"/>
<stop offset="1" stop-color="#B2D5B2"/>
</linearGradient>
</defs>
</svg>
