<svg width="36" height="30" viewBox="0 0 36 30" fill="none" xmlns="http://www.w3.org/2000/svg">
<path d="M28.8893 11.0303C30.5199 14.562 32.0995 17.8607 33.5882 21.1949C34.7102 23.708 33.6732 25.9696 30.8111 26.5505C22.0399 28.3308 13.1879 28.0981 4.41187 26.6569C0.842044 26.0706 -0.184319 22.9993 1.79678 20.0729C2.38889 19.1983 3.32282 18.4951 3.76658 17.5727C4.21027 16.6505 4.2365 15.5523 4.4619 14.4523C10.269 13.315 16.1324 12.2617 17.7135 5.35972C20.0678 5.84349 22.319 6.3061 24.715 6.79842C25.0829 5.9346 25.8207 4.04462 26.4008 3.55171C27.5413 2.58265 28.2648 2.27495 29.6261 2.15849C30.6132 2.07405 32.5112 3.50172 32.6495 4.43158C33.6008 7.3675 32.8008 8.13065 31.6008 8.89381C31.0762 9.78766 29.613 10.0673 28.8893 11.0303Z" fill="#14202D"/>
<path d="M6.35279 0.510361C4.02057 0.685974 2.02078 2.12665 1.27364 4.16734C0.977186 4.97386 0.881224 5.78525 0.982327 6.61454C1.19653 8.35116 2.26582 9.98696 3.83378 10.9723C4.08226 11.1284 4.35986 11.2829 4.50723 11.348C4.5415 11.3642 4.57064 11.3821 4.57064 11.387C4.57064 11.3935 4.49352 11.548 4.40099 11.7301C3.59216 13.3106 3.1192 15.0391 2.98554 16.8912L2.97355 17.0521L2.85017 17.1578C1.28564 18.5091 0.353431 20.0912 0.0809662 21.8506C-0.0698319 22.8279 -0.00814176 23.8327 0.250614 24.675C0.499088 25.4783 0.915496 26.1336 1.5581 26.7304C2.04477 27.184 2.58284 27.5336 3.30599 27.867C5.25094 28.7629 8.05099 29.2394 12.3933 29.4117C15.279 29.5255 20.4284 29.5304 23.4118 29.4198C28.9434 29.215 32.165 28.5044 34.0534 27.0686C34.2967 26.8832 34.6857 26.5141 34.8673 26.2978C35.4397 25.6133 35.7978 24.8002 35.9366 23.8669C36.0257 23.2718 36.0206 22.4848 35.9229 21.8425C35.7653 20.8002 35.3386 19.7628 34.6891 18.8424C34.3275 18.327 34.014 17.9725 33.4622 17.4521L33.0235 17.0359L33.0012 16.7773C32.859 14.9757 32.3809 13.2765 31.5583 11.6488C31.4829 11.5024 31.4247 11.3805 31.4264 11.3789C31.4298 11.3772 31.5241 11.3301 31.6372 11.2732C32.8556 10.6666 33.8991 9.61785 34.4818 8.41132C34.8913 7.5609 35.0764 6.72023 35.0507 5.82591C35.0387 5.4698 35.013 5.24216 34.9427 4.90882C34.4458 2.54617 32.3929 0.794919 29.8036 0.521743C29.5534 0.495726 28.8937 0.495726 28.6469 0.523369C27.4988 0.646948 26.4929 1.04208 25.6138 1.71851C25.4407 1.85022 25.0415 2.22259 24.8787 2.40308C24.44 2.88601 24.0716 3.46976 23.8145 4.08604C23.7374 4.26978 23.6226 4.60312 23.5815 4.75597L23.5541 4.86329L23.2627 4.76735C20.497 3.85351 17.2822 3.69578 14.3554 4.33157C13.807 4.45027 13.1199 4.63889 12.6469 4.79987L12.455 4.86491L12.4361 4.79662C12.3196 4.36246 12.0951 3.82424 11.8655 3.41936C11.7267 3.17708 11.4337 2.75918 11.2434 2.53316C10.9419 2.17706 10.462 1.75103 10.0456 1.47298C9.28822 0.96728 8.37829 0.638818 7.43409 0.533125C7.16162 0.50223 6.60984 0.489222 6.35279 0.510361ZM29.8653 2.58845C31.0425 2.7917 32.0536 3.50554 32.5557 4.48604C33.0509 5.45517 33.0286 6.5999 32.494 7.62269C32.2318 8.12839 31.9696 8.4601 31.5189 8.86174C31.0014 9.32353 30.3879 9.64224 29.6682 9.82436C29.3803 9.89753 29.2501 9.9642 29.0839 10.1252C28.9245 10.2764 28.8543 10.3951 28.7994 10.6065C28.7257 10.8829 28.7789 11.1382 28.9742 11.439C29.454 12.1854 29.8087 12.8586 30.0726 13.5252C30.4205 14.4033 30.6741 15.3903 30.7958 16.3383C30.8386 16.6733 30.8575 16.8781 30.8832 17.3058C30.9209 17.9692 30.9757 18.0814 31.4521 18.4603C31.8994 18.8164 32.3552 19.2684 32.6722 19.6717C33.493 20.7107 33.8957 21.8717 33.8512 23.062C33.8237 23.7693 33.6541 24.3189 33.3097 24.8035C32.5265 25.9092 30.8815 26.5856 28.0043 26.9873C26.3747 27.2133 24.5445 27.3385 21.6211 27.4214C20.67 27.4475 16.5831 27.4588 15.375 27.4377C12.371 27.3857 10.3575 27.2735 8.58049 27.0605C4.8808 26.6198 3.00096 25.7645 2.38578 24.2409C2.27097 23.9547 2.2127 23.7108 2.16986 23.3384C2.14416 23.1173 2.15958 22.4636 2.19728 22.2165C2.32237 21.366 2.65996 20.5709 3.20831 19.8262C3.57674 19.3286 4 18.8993 4.58434 18.4294C4.69402 18.3416 4.8054 18.2473 4.82939 18.2229C4.95448 18.0944 5.07101 17.8505 5.09157 17.6798C5.09671 17.631 5.11042 17.4408 5.11899 17.257C5.13784 16.9009 5.1704 16.5399 5.21324 16.2245C5.28693 15.6863 5.44801 14.9253 5.57653 14.522L5.62108 14.3822L5.80272 14.3724C6.43162 14.3366 6.62869 14.3236 7.00397 14.2879C12.2391 13.7935 16.4768 11.3577 17.601 8.19506C17.8306 7.54952 17.9368 6.81292 17.8837 6.24543C17.8614 6.00477 17.8614 5.99014 17.8888 5.98201C17.9728 5.96249 19.0078 6.0129 19.5391 6.06331C20.9665 6.19827 22.4591 6.58364 23.7614 7.15113C24.0938 7.29585 24.1898 7.32512 24.3732 7.33488C24.8033 7.35602 25.2026 7.13975 25.3876 6.78365C25.4802 6.60641 25.4922 6.55275 25.511 6.23242C25.5316 5.90721 25.5676 5.64867 25.6241 5.41289C25.8212 4.59499 26.2907 3.84538 26.9247 3.34131C27.4525 2.92016 28.102 2.64861 28.7943 2.55918C29.0051 2.53154 29.6391 2.54942 29.8653 2.58845Z" fill="#F4BF04"/>
<path d="M12.9304 15.217C12.4215 15.3259 12.0411 15.6576 11.892 16.1275C11.8508 16.2544 11.8457 16.3015 11.8457 16.4853C11.8457 16.669 11.8508 16.7162 11.892 16.843C11.9502 17.0235 12.0342 17.1747 12.149 17.3032C12.3392 17.5146 12.5466 17.6446 12.819 17.7227C12.9527 17.7617 13.0024 17.7666 13.196 17.7666C13.3897 17.7666 13.4394 17.7617 13.573 17.7227C14.0391 17.5894 14.387 17.2511 14.5172 16.8024C14.5652 16.6414 14.5618 16.3145 14.5104 16.1471C14.375 15.6999 14.0271 15.3682 13.561 15.2397C13.3965 15.1958 13.0864 15.1844 12.9304 15.217Z" fill="#F4BF04"/>
<path d="M22.5735 15.2082C22.2976 15.257 22.056 15.3789 21.8435 15.5806C21.5899 15.8212 21.4716 16.0749 21.4562 16.4131C21.4442 16.6342 21.4665 16.7724 21.5384 16.9497C21.703 17.3546 22.0817 17.657 22.5375 17.7464C22.6232 17.7627 22.7431 17.7773 22.8048 17.7773C23.3497 17.7773 23.8741 17.4342 24.0712 16.9497C24.1431 16.7724 24.1654 16.6342 24.1534 16.4131C24.138 16.0749 24.0198 15.8212 23.7661 15.5806C23.5005 15.3285 23.2178 15.2098 22.8562 15.2001C22.7483 15.1968 22.6215 15.2001 22.5735 15.2082Z" fill="#F4BF04"/>
<path d="M16.2139 20.6255C16.1248 20.6987 16.1231 20.9084 16.2071 21.1475C16.3339 21.5085 16.7092 21.8825 17.1427 22.0759L17.2472 22.1231L17.1736 22.2093C17.1324 22.2564 17.0707 22.3442 17.0365 22.406C16.8737 22.689 16.8068 22.78 16.668 22.915C16.375 23.1979 16.0254 23.3378 15.6142 23.3378C15.4257 23.3378 15.2629 23.302 15.1001 23.2256C14.927 23.1443 14.8225 23.0451 14.7231 22.8743C14.5534 22.5784 14.3427 22.4125 14.0257 22.3296C13.5887 22.2142 13.102 22.3947 12.8484 22.767C12.6411 23.0711 12.6291 23.4646 12.8141 23.8126C13.0969 24.3443 13.5493 24.7687 14.1285 25.0435C14.5346 25.237 14.9202 25.3345 15.4154 25.3719C16.2585 25.4354 17.1804 25.1573 17.8607 24.6353L17.9995 24.5297L18.1263 24.6256C19.0311 25.3118 20.2221 25.5508 21.2931 25.2581C22.1362 25.0272 22.7959 24.5297 23.1695 23.8435C23.274 23.6516 23.3169 23.4971 23.3169 23.3134C23.3169 23.0256 23.2192 22.8044 22.9998 22.5963C22.7685 22.3784 22.5218 22.2873 22.1945 22.302C21.8037 22.3199 21.4833 22.5166 21.2931 22.8548C21.108 23.1849 20.803 23.3378 20.3318 23.3378C20.1073 23.3378 19.9719 23.3117 19.7954 23.2337C19.4561 23.0841 19.2333 22.8711 19.0071 22.476C18.954 22.3816 18.8769 22.2646 18.8358 22.2142L18.7604 22.1231L18.8495 22.0841C19.1271 21.9621 19.4612 21.6906 19.6309 21.4499C19.8211 21.1816 19.9068 20.8515 19.8297 20.6792C19.7731 20.5475 19.6652 20.567 19.1528 20.8011C18.5427 21.0792 18.2017 21.1589 17.8042 21.1117C17.5146 21.0776 17.2952 21.006 16.7777 20.7719C16.3493 20.5784 16.291 20.5637 16.2139 20.6255Z" fill="#F4BF04"/>
</svg>
