<svg width="35" height="36" viewBox="0 0 35 36" fill="none" xmlns="http://www.w3.org/2000/svg">
<path d="M-0.00830078 17.2102C-0.00830078 9.29056 -0.00830078 5.33076 2.40376 2.87046C4.81582 0.410156 8.69798 0.410156 16.4623 0.410156H18.5211C26.2854 0.410156 30.1676 0.410156 32.5796 2.87046C34.9917 5.33076 34.9917 9.29056 34.9917 17.2102V18.6102C34.9917 26.5298 34.9917 30.4896 32.5796 32.9499C30.1676 35.4102 26.2854 35.4102 18.5211 35.4102H16.4623C8.69798 35.4102 4.81582 35.4102 2.40376 32.9499C-0.00830078 30.4896 -0.00830078 26.5298 -0.00830078 18.6102V17.2102Z" fill="#805BEB" fill-opacity="0.15"/>
<path d="M24.6065 10.9061C23.2131 10.2087 21.7045 9.70263 20.133 9.41021C20.1192 9.40973 20.1055 9.41251 20.0929 9.41834C20.0802 9.42417 20.0689 9.43291 20.0597 9.44395C19.8711 9.8151 19.6511 10.2987 19.5044 10.6699C17.8376 10.3999 16.1425 10.3999 14.4757 10.6699C14.3291 10.2875 14.109 9.8151 13.91 9.44395C13.8995 9.42146 13.8681 9.41021 13.8367 9.41021C12.2652 9.70263 10.7671 10.2087 9.3632 10.9061C9.35273 10.9061 9.34225 10.9173 9.33177 10.9286C6.48217 15.5061 5.69643 19.9599 6.08406 24.3688C6.08406 24.3913 6.09454 24.4138 6.11549 24.425C8.00126 25.9096 9.81369 26.8094 11.6052 27.4055C11.6366 27.4167 11.668 27.4055 11.6785 27.383C12.0976 26.7644 12.4747 26.1121 12.7995 25.426C12.8204 25.381 12.7995 25.336 12.7576 25.3248C12.1604 25.0774 11.5947 24.7849 11.0394 24.4475C10.9975 24.425 10.9975 24.3575 11.029 24.3238C11.1442 24.2338 11.2594 24.1326 11.3747 24.0426C11.3956 24.0201 11.4271 24.0201 11.448 24.0314C15.0519 25.7972 18.9387 25.7972 22.5007 24.0314C22.5217 24.0201 22.5531 24.0201 22.574 24.0426C22.6893 24.1439 22.8045 24.2338 22.9198 24.3351C22.9617 24.3688 22.9617 24.4363 22.9093 24.4588C22.3645 24.8074 21.7883 25.0886 21.1911 25.336C21.1492 25.3473 21.1388 25.4035 21.1492 25.4373C21.4845 26.1233 21.8616 26.7757 22.2702 27.3942C22.3017 27.4055 22.3331 27.4167 22.3645 27.4055C24.1665 26.8094 25.9789 25.9096 27.8647 24.425C27.8856 24.4138 27.8961 24.3913 27.8961 24.3688C28.3571 19.2739 27.1313 14.8538 24.6484 10.9286C24.6379 10.9173 24.6274 10.9061 24.6065 10.9061ZM13.3443 21.6807C12.2652 21.6807 11.3642 20.6123 11.3642 19.2964C11.3642 17.9805 12.2442 16.912 13.3443 16.912C14.4548 16.912 15.3348 17.9917 15.3243 19.2964C15.3243 20.6123 14.4443 21.6807 13.3443 21.6807ZM20.6464 21.6807C19.5673 21.6807 18.6663 20.6123 18.6663 19.2964C18.6663 17.9805 19.5463 16.912 20.6464 16.912C21.7569 16.912 22.6369 17.9917 22.6264 19.2964C22.6264 20.6123 21.7569 21.6807 20.6464 21.6807Z" fill="url(#paint0_linear_1312_5756)"/>
<defs>
<linearGradient id="paint0_linear_1312_5756" x1="16.9917" y1="9.41016" x2="16.9917" y2="27.4102" gradientUnits="userSpaceOnUse">
<stop stop-color="#4EAF90"/>
<stop offset="1" stop-color="#B2D5B2"/>
</linearGradient>
</defs>
</svg>
