<svg width="28" height="24" viewBox="0 0 28 24" fill="none" xmlns="http://www.w3.org/2000/svg">
<path d="M4.94106 0.00857404C3.12711 0.153909 1.57172 1.34619 0.99061 3.03504C0.760034 3.7025 0.685396 4.374 0.764032 5.06031C0.930634 6.49751 1.76231 7.85128 2.98183 8.66677C3.17509 8.79595 3.391 8.9238 3.50562 8.97762C3.53228 8.99108 3.55494 9.00588 3.55494 9.00992C3.55494 9.0153 3.49496 9.14314 3.42299 9.29386C2.7939 10.6019 2.42605 12.0323 2.32209 13.5651L2.31276 13.6983L2.2168 13.7858C0.99994 14.9041 0.274891 16.2134 0.0629737 17.6695C-0.0543137 18.4782 -0.00633248 19.3099 0.194922 20.0069C0.38818 20.6717 0.712053 21.214 1.21186 21.7079C1.59038 22.0833 2.00888 22.3727 2.57132 22.6485C4.08406 23.39 6.26188 23.7843 9.63922 23.9269C11.8837 24.0211 15.8888 24.0252 18.2092 23.9337C22.5115 23.7641 25.0172 23.176 26.486 21.9878C26.6752 21.8344 26.9778 21.5289 27.119 21.3499C27.5642 20.7834 27.8428 20.1105 27.9507 19.3381C28.02 18.8456 28.016 18.1943 27.94 17.6627C27.8174 16.8001 27.4856 15.9416 26.9804 15.1799C26.6992 14.7533 26.4553 14.46 26.0261 14.0294L25.6849 13.6849L25.6676 13.4709C25.557 11.9799 25.1851 10.5736 24.5454 9.22658C24.4867 9.10546 24.4414 9.00454 24.4428 9.00319C24.4454 9.00185 24.5187 8.96282 24.6067 8.91572C25.5543 8.41378 26.366 7.5458 26.8192 6.5473C27.1377 5.8435 27.2816 5.14778 27.2616 4.40765C27.2523 4.11294 27.2323 3.92454 27.1777 3.64867C26.7912 1.69338 25.1945 0.24407 23.1806 0.0179939C22.986 -0.00353721 22.4729 -0.00353721 22.2809 0.0193396C21.3879 0.121612 20.6056 0.448616 19.9219 1.00842C19.7872 1.11743 19.4767 1.42559 19.3501 1.57496C19.0089 1.97463 18.7223 2.45774 18.5224 2.96775C18.4624 3.11982 18.3731 3.39568 18.3411 3.52218L18.3198 3.611L18.0932 3.5316C15.9421 2.77532 13.4417 2.64479 11.1653 3.17095C10.7388 3.26919 10.2043 3.42529 9.83648 3.55851L9.6872 3.61234L9.67254 3.55582C9.58191 3.19652 9.40731 2.7511 9.22872 2.41602C9.12076 2.21551 8.89285 1.86967 8.74491 1.68262C8.51033 1.38791 8.13714 1.03534 7.81327 0.805225C7.22417 0.386714 6.51645 0.114884 5.78207 0.0274138C5.57015 0.00184557 5.14098 -0.00891998 4.94106 0.00857404ZM23.2286 1.72837C24.1442 1.89658 24.9306 2.48734 25.3211 3.29879C25.7063 4.10083 25.6889 5.0482 25.2731 5.89464C25.0692 6.31315 24.8653 6.58767 24.5147 6.92006C24.1122 7.30223 23.6351 7.56599 23.0753 7.71671C22.8514 7.77726 22.7501 7.83244 22.6208 7.96566C22.4968 8.09081 22.4422 8.18905 22.3996 8.36399C22.3422 8.59275 22.3836 8.80403 22.5355 9.05298C22.9087 9.67066 23.1846 10.2278 23.3898 10.7795C23.6604 11.5062 23.8576 12.323 23.9523 13.1076C23.9856 13.3848 24.0003 13.5543 24.0203 13.9082C24.0496 14.4573 24.0922 14.5501 24.4627 14.8637C24.8106 15.1584 25.1651 15.5325 25.4117 15.8662C26.0501 16.7261 26.3633 17.687 26.3287 18.672C26.3074 19.2574 26.1754 19.7122 25.9075 20.1132C25.2984 21.0283 24.0189 21.5881 21.7811 21.9205C20.5136 22.1076 19.0902 22.2112 16.8164 22.2798C16.0767 22.3013 12.8979 22.3108 11.9583 22.2933C9.6219 22.2502 8.05584 22.1574 6.67372 21.9811C3.79618 21.6164 2.33408 20.9085 1.8556 19.6476C1.76631 19.4108 1.72099 19.2089 1.68767 18.9008C1.66768 18.7178 1.67967 18.1768 1.709 17.9722C1.80629 17.2684 2.06885 16.6104 2.49535 15.9941C2.78191 15.5823 3.11111 15.227 3.5656 14.8381C3.6509 14.7655 3.73753 14.6874 3.75619 14.6672C3.85349 14.5609 3.94412 14.3591 3.96011 14.2178C3.96411 14.1774 3.97477 14.0199 3.98144 13.8679C3.9961 13.5732 4.02142 13.2744 4.05474 13.0134C4.11205 12.5679 4.23734 11.9381 4.3373 11.6044L4.37195 11.4887L4.51323 11.4806C5.00237 11.451 5.15564 11.4402 5.44753 11.4106C9.51927 11.0015 12.8153 8.9857 13.6896 6.36832C13.8682 5.83408 13.9509 5.22448 13.9095 4.75484C13.8922 4.55567 13.8922 4.54356 13.9135 4.53683C13.9789 4.52068 14.7839 4.5624 15.197 4.60412C16.3073 4.71581 17.4682 5.03474 18.4811 5.50439C18.7397 5.62415 18.8143 5.64838 18.9569 5.65645C19.2914 5.67394 19.602 5.49497 19.7459 5.20026C19.8179 5.05358 19.8272 5.00917 19.8419 4.74407C19.8579 4.47493 19.8859 4.26097 19.9299 4.06584C20.0831 3.38896 20.4483 2.76859 20.9415 2.35143C21.352 2.00289 21.8571 1.77816 22.3956 1.70415C22.5595 1.68127 23.0526 1.69607 23.2286 1.72837Z" fill="#DFFE00"/>
<path d="M10.0585 12.1788C9.66267 12.269 9.36678 12.5435 9.25083 12.9324C9.21884 13.0374 9.21484 13.0764 9.21484 13.2285C9.21484 13.3805 9.21884 13.4196 9.25083 13.5245C9.29615 13.6739 9.36145 13.799 9.45075 13.9054C9.59869 14.0803 9.75996 14.188 9.97188 14.2525C10.0758 14.2848 10.1145 14.2889 10.2651 14.2889C10.4157 14.2889 10.4544 14.2848 10.5583 14.2525C10.9208 14.1422 11.1914 13.8623 11.2927 13.4909C11.33 13.3577 11.3273 13.0872 11.2874 12.9486C11.1821 12.5785 10.9115 12.304 10.549 12.1977C10.421 12.1613 10.1798 12.1519 10.0585 12.1788Z" fill="#DFFE00"/>
<path d="M17.5569 12.1725C17.3423 12.2129 17.1544 12.3138 16.9892 12.4807C16.7919 12.6798 16.6999 12.8898 16.6879 13.1697C16.6786 13.3527 16.6959 13.4671 16.7519 13.6137C16.8799 13.9488 17.1744 14.1991 17.5289 14.2731C17.5956 14.2866 17.6889 14.2987 17.7369 14.2987C18.1607 14.2987 18.5685 14.0148 18.7218 13.6137C18.7778 13.4671 18.7951 13.3527 18.7858 13.1697C18.7738 12.8898 18.6818 12.6798 18.4846 12.4807C18.278 12.2721 18.0581 12.1739 17.7768 12.1658C17.6929 12.1631 17.5942 12.1658 17.5569 12.1725Z" fill="#DFFE00"/>
<path d="M12.6111 16.6562C12.5418 16.7168 12.5404 16.8904 12.6057 17.0882C12.7044 17.3869 12.9962 17.6964 13.3334 17.8566L13.4147 17.8956L13.3574 17.9669C13.3254 18.0059 13.2775 18.0786 13.2508 18.1298C13.1242 18.3639 13.0722 18.4393 12.9643 18.551C12.7363 18.7851 12.4644 18.9008 12.1446 18.9008C11.998 18.9008 11.8713 18.8712 11.7447 18.808C11.6101 18.7407 11.5288 18.6586 11.4515 18.5173C11.3196 18.2724 11.1556 18.1351 10.9091 18.0665C10.5692 17.971 10.1907 18.1203 9.99342 18.4285C9.83215 18.6801 9.82282 19.0058 9.96676 19.2938C10.1867 19.7338 10.5385 20.085 10.989 20.3125C11.3049 20.4726 11.6048 20.5533 11.99 20.5843C12.6457 20.6368 13.3628 20.4067 13.8919 19.9747L13.9998 19.8872L14.0985 19.9666C14.8022 20.5345 15.7285 20.7323 16.5615 20.4901C17.2173 20.299 17.7304 19.8872 18.0209 19.3193C18.1022 19.1606 18.1356 19.0327 18.1356 18.8807C18.1356 18.6425 18.0596 18.4594 17.889 18.2872C17.7091 18.1069 17.5171 18.0315 17.2626 18.0436C16.9587 18.0584 16.7095 18.2213 16.5615 18.5012C16.4176 18.7743 16.1803 18.9008 15.8138 18.9008C15.6392 18.9008 15.5339 18.8793 15.3966 18.8147C15.1327 18.6909 14.9595 18.5146 14.7835 18.1876C14.7422 18.1096 14.6822 18.0127 14.6503 17.971L14.5916 17.8956L14.6609 17.8633C14.8768 17.7624 15.1367 17.5376 15.2687 17.3385C15.4166 17.1164 15.4833 16.8433 15.4233 16.7006C15.3793 16.5916 15.2953 16.6078 14.8968 16.8016C14.4223 17.0317 14.1571 17.0976 13.8479 17.0586C13.6227 17.0303 13.4521 16.9711 13.0496 16.7773C12.7163 16.6172 12.671 16.6051 12.6111 16.6562Z" fill="#DFFE00"/>
</svg>
