<svg width="35" height="36" viewBox="0 0 35 36" fill="none" xmlns="http://www.w3.org/2000/svg">
<path d="M-0.00830078 17.2102C-0.00830078 9.29056 -0.00830078 5.33076 2.40376 2.87046C4.81582 0.410156 8.69798 0.410156 16.4623 0.410156H18.5211C26.2854 0.410156 30.1676 0.410156 32.5796 2.87046C34.9917 5.33076 34.9917 9.29056 34.9917 17.2102V18.6102C34.9917 26.5298 34.9917 30.4896 32.5796 32.9499C30.1676 35.4102 26.2854 35.4102 18.5211 35.4102H16.4623C8.69798 35.4102 4.81582 35.4102 2.40376 32.9499C-0.00830078 30.4896 -0.00830078 26.5298 -0.00830078 18.6102V17.2102Z" fill="#805BEB" fill-opacity="0.15"/>
<path d="M18.8967 16.8797L26.3429 8.41016H24.5786L18.1101 15.7626L12.9475 8.41016H6.9917L14.8003 19.5293L6.9917 28.4102H8.75599L15.5827 20.6439L21.0359 28.4102H26.9917L18.8967 16.8797ZM16.4794 19.6269L15.6871 18.519L9.39223 9.71162H12.1025L17.1842 16.8221L17.9732 17.93L24.5778 27.1721H21.8675L16.4794 19.6269Z" fill="url(#paint0_linear_1312_5743)"/>
<defs>
<linearGradient id="paint0_linear_1312_5743" x1="16.9917" y1="8.41016" x2="16.9917" y2="28.4102" gradientUnits="userSpaceOnUse">
<stop stop-color="#4EAF90"/>
<stop offset="0.9999" stop-color="#B2D5B2"/>
<stop offset="1" stop-color="#B2D5B2"/>
</linearGradient>
</defs>
</svg>
