<svg width="36" height="30" viewBox="0 0 36 30" fill="none" xmlns="http://www.w3.org/2000/svg">
<path d="M28.8893 10.8303C30.5199 14.3621 32.0995 17.6607 33.5882 20.995C34.7102 23.508 33.6732 25.7697 30.8111 26.3506C22.0399 28.1308 13.1879 27.8981 4.41187 26.4569C0.842044 25.8707 -0.184319 22.7993 1.79678 19.873C2.38889 18.9984 3.32282 18.2952 3.76658 17.3728C4.21027 16.4506 4.2365 15.3524 4.4619 14.2524C10.269 13.1151 16.1324 12.0618 17.7135 5.15977C20.0678 5.64354 22.319 6.10614 24.715 6.59847C25.0829 5.73465 25.8207 3.84467 26.4008 3.35176C27.5413 2.3827 28.2648 2.07499 29.6261 1.95854C30.6132 1.8741 32.5112 3.30177 32.6495 4.23163C33.6008 7.16754 32.8008 7.9307 31.6008 8.69386C31.0762 9.58771 29.613 9.86737 28.8893 10.8303Z" fill="#14202D"/>
<path d="M6.35279 0.309189C4.02057 0.484802 2.02078 1.92548 1.27364 3.96617C0.977186 4.77269 0.881224 5.58408 0.982327 6.41337C1.19653 8.14998 2.26582 9.78579 3.83378 10.7712C4.08226 10.9273 4.35986 11.0817 4.50723 11.1468C4.5415 11.163 4.57064 11.1809 4.57064 11.1858C4.57064 11.1923 4.49352 11.3468 4.40099 11.5289C3.59216 13.1094 3.1192 14.8379 2.98554 16.69L2.97355 16.851L2.85017 16.9567C1.28564 18.3079 0.353431 19.89 0.0809662 21.6494C-0.0698319 22.6267 -0.00814176 23.6316 0.250614 24.4739C0.499088 25.2771 0.915496 25.9324 1.5581 26.5292C2.04477 26.9829 2.58284 27.3325 3.30599 27.6658C5.25094 28.5618 8.05099 29.0382 12.3933 29.2105C15.279 29.3244 20.4284 29.3292 23.4118 29.2187C28.9434 29.0138 32.165 28.3032 34.0534 26.8674C34.2967 26.682 34.6857 26.3129 34.8673 26.0967C35.4397 25.4121 35.7978 24.5991 35.9366 23.6657C36.0257 23.0706 36.0206 22.2836 35.9229 21.6413C35.7653 20.599 35.3386 19.5616 34.6891 18.6412C34.3275 18.1258 34.014 17.7713 33.4622 17.251L33.0235 16.8347L33.0012 16.5762C32.859 14.7745 32.3809 13.0753 31.5583 11.4476C31.4829 11.3013 31.4247 11.1793 31.4264 11.1777C31.4298 11.1761 31.5241 11.1289 31.6372 11.072C32.8556 10.4655 33.8991 9.41668 34.4818 8.21015C34.8913 7.35973 35.0764 6.51906 35.0507 5.62473C35.0387 5.26863 35.013 5.04098 34.9427 4.70764C34.4458 2.345 32.3929 0.593747 29.8036 0.320571C29.5534 0.294554 28.8937 0.294554 28.6469 0.322197C27.4988 0.445777 26.4929 0.840906 25.6138 1.51734C25.4407 1.64905 25.0415 2.02142 24.8787 2.20191C24.44 2.68484 24.0716 3.26859 23.8145 3.88486C23.7374 4.06861 23.6226 4.40195 23.5815 4.5548L23.5541 4.66211L23.2627 4.56618C20.497 3.65234 17.2822 3.49461 14.3554 4.1304C13.807 4.2491 13.1199 4.43772 12.6469 4.5987L12.455 4.66374L12.4361 4.59545C12.3196 4.16129 12.0951 3.62307 11.8655 3.21818C11.7267 2.9759 11.4337 2.55801 11.2434 2.33199C10.9419 1.97589 10.462 1.54986 10.0456 1.27181C9.28822 0.766108 8.37829 0.437646 7.43409 0.331953C7.16162 0.301058 6.60984 0.28805 6.35279 0.309189ZM29.8653 2.38728C31.0425 2.59053 32.0536 3.30437 32.5557 4.28487C33.0509 5.254 33.0286 6.39873 32.494 7.42152C32.2318 7.92722 31.9696 8.25893 31.5189 8.66056C31.0014 9.12236 30.3879 9.44107 29.6682 9.62318C29.3803 9.69636 29.2501 9.76302 29.0839 9.924C28.9245 10.0752 28.8543 10.1939 28.7994 10.4053C28.7257 10.6817 28.7789 10.937 28.9742 11.2378C29.454 11.9842 29.8087 12.6574 30.0726 13.3241C30.4205 14.2021 30.6741 15.1891 30.7958 16.1371C30.8386 16.4721 30.8575 16.677 30.8832 17.1046C30.9209 17.7681 30.9757 17.8803 31.4521 18.2591C31.8994 18.6152 32.3552 19.0673 32.6722 19.4705C33.493 20.5096 33.8957 21.6706 33.8512 22.8608C33.8237 23.5682 33.6541 24.1178 33.3097 24.6023C32.5265 25.708 30.8815 26.3845 28.0043 26.7861C26.3747 27.0121 24.5445 27.1373 21.6211 27.2203C20.67 27.2463 16.5831 27.2577 15.375 27.2365C12.371 27.1845 10.3575 27.0723 8.58049 26.8593C4.8808 26.4186 3.00096 25.5633 2.38578 24.0397C2.27097 23.7535 2.2127 23.5096 2.16986 23.1373C2.14416 22.9161 2.15958 22.2624 2.19728 22.0153C2.32237 21.1649 2.65996 20.3697 3.20831 19.625C3.57674 19.1274 4 18.6982 4.58434 18.2282C4.69402 18.1404 4.8054 18.0461 4.82939 18.0217C4.95448 17.8933 5.07101 17.6494 5.09157 17.4786C5.09671 17.4298 5.11042 17.2396 5.11899 17.0558C5.13784 16.6997 5.1704 16.3388 5.21324 16.0233C5.28693 15.4851 5.44801 14.7241 5.57653 14.3208L5.62108 14.181L5.80272 14.1712C6.43162 14.1355 6.62869 14.1225 7.00397 14.0867C12.2391 13.5924 16.4768 11.1565 17.601 7.99388C17.8306 7.34834 17.9368 6.61174 17.8837 6.04425C17.8614 5.8036 17.8614 5.78896 17.8888 5.78083C17.9728 5.76132 19.0078 5.81173 19.5391 5.86214C20.9665 5.9971 22.4591 6.38247 23.7614 6.94996C24.0938 7.09468 24.1898 7.12395 24.3732 7.13371C24.8033 7.15484 25.2026 6.93858 25.3876 6.58248C25.4802 6.40524 25.4922 6.35158 25.511 6.03125C25.5316 5.70604 25.5676 5.4475 25.6241 5.21172C25.8212 4.39382 26.2907 3.64421 26.9247 3.14013C27.4525 2.71899 28.102 2.44744 28.7943 2.35801C29.0051 2.33036 29.6391 2.34825 29.8653 2.38728Z" fill="#CC031A"/>
<path d="M12.9304 15.0147C12.4215 15.1236 12.0411 15.4553 11.892 15.9253C11.8508 16.0521 11.8457 16.0993 11.8457 16.283C11.8457 16.4667 11.8508 16.5139 11.892 16.6407C11.9502 16.8212 12.0342 16.9724 12.149 17.1009C12.3392 17.3123 12.5466 17.4424 12.819 17.5204C12.9527 17.5595 13.0024 17.5643 13.196 17.5643C13.3897 17.5643 13.4394 17.5595 13.573 17.5204C14.0391 17.3871 14.387 17.0489 14.5172 16.6001C14.5652 16.4391 14.5618 16.1123 14.5104 15.9448C14.375 15.4976 14.0271 15.1659 13.561 15.0375C13.3965 14.9936 13.0864 14.9822 12.9304 15.0147Z" fill="#CC031A"/>
<path d="M22.5735 15.0068C22.2976 15.0556 22.056 15.1775 21.8435 15.3791C21.5899 15.6198 21.4716 15.8735 21.4562 16.2117C21.4442 16.4328 21.4665 16.571 21.5384 16.7483C21.703 17.1532 22.0817 17.4556 22.5375 17.545C22.6232 17.5613 22.7431 17.5759 22.8048 17.5759C23.3497 17.5759 23.8741 17.2328 24.0712 16.7483C24.1431 16.571 24.1654 16.4328 24.1534 16.2117C24.138 15.8735 24.0198 15.6198 23.7661 15.3791C23.5005 15.1271 23.2178 15.0084 22.8562 14.9986C22.7483 14.9954 22.6215 14.9986 22.5735 15.0068Z" fill="#CC031A"/>
<path d="M16.2139 20.4247C16.1248 20.4979 16.1231 20.7076 16.2071 20.9467C16.3339 21.3077 16.7092 21.6816 17.1427 21.8751L17.2472 21.9223L17.1736 22.0085C17.1324 22.0556 17.0707 22.1434 17.0365 22.2052C16.8737 22.4882 16.8068 22.5792 16.668 22.7142C16.375 22.9971 16.0254 23.137 15.6142 23.137C15.4257 23.137 15.2629 23.1012 15.1001 23.0248C14.927 22.9435 14.8225 22.8443 14.7231 22.6735C14.5534 22.3776 14.3427 22.2117 14.0257 22.1288C13.5887 22.0134 13.102 22.1938 12.8484 22.5662C12.6411 22.8703 12.6291 23.2638 12.8141 23.6118C13.0969 24.1435 13.5493 24.5679 14.1285 24.8427C14.5346 25.0362 14.9202 25.1337 15.4154 25.1711C16.2585 25.2346 17.1804 24.9565 17.8607 24.4345L17.9995 24.3288L18.1263 24.4248C19.0311 25.111 20.2221 25.35 21.2931 25.0573C22.1362 24.8264 22.7959 24.3288 23.1695 23.6427C23.274 23.4508 23.3169 23.2963 23.3169 23.1126C23.3169 22.8248 23.2192 22.6036 22.9998 22.3955C22.7685 22.1776 22.5218 22.0865 22.1945 22.1012C21.8037 22.1191 21.4833 22.3158 21.2931 22.654C21.108 22.9841 20.803 23.137 20.3318 23.137C20.1073 23.137 19.9719 23.1109 19.7954 23.0329C19.4561 22.8833 19.2333 22.6703 19.0071 22.2752C18.954 22.1808 18.8769 22.0638 18.8358 22.0134L18.7604 21.9223L18.8495 21.8833C19.1271 21.7613 19.4612 21.4898 19.6309 21.2491C19.8211 20.9808 19.9068 20.6507 19.8297 20.4784C19.7731 20.3467 19.6652 20.3662 19.1528 20.6003C18.5427 20.8784 18.2017 20.9581 17.8042 20.9109C17.5146 20.8768 17.2952 20.8052 16.7777 20.5711C16.3493 20.3776 16.291 20.3629 16.2139 20.4247Z" fill="#CC031A"/>
</svg>
