<svg width="36" height="30" viewBox="0 0 36 30" fill="none" xmlns="http://www.w3.org/2000/svg">
<path d="M28.8893 11.0308C30.5199 14.5625 32.0995 17.8612 33.5882 21.1954C34.7102 23.7085 33.6732 25.9701 30.8111 26.551C22.0399 28.3312 13.1879 28.0985 4.41187 26.6574C0.842044 26.0711 -0.184319 22.9997 1.79678 20.0734C2.38889 19.1988 3.32282 18.4956 3.76658 17.5732C4.21027 16.651 4.2365 15.5528 4.4619 14.4528C10.269 13.3155 16.1324 12.2622 17.7135 5.36021C20.0678 5.84398 22.319 6.30658 24.715 6.79891C25.0829 5.93509 25.8207 4.04511 26.4008 3.55219C27.5413 2.58314 28.2648 2.27543 29.6261 2.15898C30.6132 2.07454 32.5112 3.5022 32.6495 4.43207C33.6008 7.36798 32.8008 8.13114 31.6008 8.8943C31.0762 9.78815 29.613 10.0678 28.8893 11.0308Z" fill="#14202D"/>
<path d="M6.35279 0.510361C4.02057 0.685974 2.02078 2.12665 1.27364 4.16734C0.977186 4.97386 0.881224 5.78525 0.982327 6.61454C1.19653 8.35116 2.26582 9.98696 3.83378 10.9723C4.08226 11.1284 4.35986 11.2829 4.50723 11.348C4.5415 11.3642 4.57064 11.3821 4.57064 11.387C4.57064 11.3935 4.49352 11.548 4.40099 11.7301C3.59216 13.3106 3.1192 15.0391 2.98554 16.8912L2.97355 17.0521L2.85017 17.1578C1.28564 18.5091 0.353431 20.0912 0.0809662 21.8506C-0.0698319 22.8279 -0.00814176 23.8327 0.250614 24.675C0.499088 25.4783 0.915496 26.1336 1.5581 26.7304C2.04477 27.184 2.58284 27.5336 3.30599 27.867C5.25094 28.7629 8.05099 29.2394 12.3933 29.4117C15.279 29.5255 20.4284 29.5304 23.4118 29.4198C28.9434 29.215 32.165 28.5044 34.0534 27.0686C34.2967 26.8832 34.6857 26.5141 34.8673 26.2978C35.4397 25.6133 35.7978 24.8002 35.9366 23.8669C36.0257 23.2718 36.0206 22.4848 35.9229 21.8425C35.7653 20.8002 35.3386 19.7628 34.6891 18.8424C34.3275 18.327 34.014 17.9725 33.4622 17.4521L33.0235 17.0359L33.0012 16.7773C32.859 14.9757 32.3809 13.2765 31.5583 11.6488C31.4829 11.5024 31.4247 11.3805 31.4264 11.3789C31.4298 11.3772 31.5241 11.3301 31.6372 11.2732C32.8556 10.6666 33.8991 9.61785 34.4818 8.41132C34.8913 7.5609 35.0764 6.72023 35.0507 5.82591C35.0387 5.4698 35.013 5.24216 34.9427 4.90882C34.4458 2.54617 32.3929 0.794919 29.8036 0.521743C29.5534 0.495726 28.8937 0.495726 28.6469 0.523369C27.4988 0.646948 26.4929 1.04208 25.6138 1.71851C25.4407 1.85022 25.0415 2.22259 24.8787 2.40308C24.44 2.88601 24.0716 3.46976 23.8145 4.08604C23.7374 4.26978 23.6226 4.60312 23.5815 4.75597L23.5541 4.86329L23.2627 4.76735C20.497 3.85351 17.2822 3.69578 14.3554 4.33157C13.807 4.45027 13.1199 4.63889 12.6469 4.79987L12.455 4.86491L12.4361 4.79662C12.3196 4.36246 12.0951 3.82424 11.8655 3.41936C11.7267 3.17708 11.4337 2.75918 11.2434 2.53316C10.9419 2.17706 10.462 1.75103 10.0456 1.47298C9.28822 0.96728 8.37829 0.638818 7.43409 0.533125C7.16162 0.50223 6.60984 0.489222 6.35279 0.510361ZM29.8653 2.58845C31.0425 2.7917 32.0536 3.50554 32.5557 4.48604C33.0509 5.45517 33.0286 6.5999 32.494 7.62269C32.2318 8.12839 31.9696 8.4601 31.5189 8.86174C31.0014 9.32353 30.3879 9.64224 29.6682 9.82436C29.3803 9.89753 29.2501 9.9642 29.0839 10.1252C28.9245 10.2764 28.8543 10.3951 28.7994 10.6065C28.7257 10.8829 28.7789 11.1382 28.9742 11.439C29.454 12.1854 29.8087 12.8586 30.0726 13.5252C30.4205 14.4033 30.6741 15.3903 30.7958 16.3383C30.8386 16.6733 30.8575 16.8781 30.8832 17.3058C30.9209 17.9692 30.9757 18.0814 31.4521 18.4603C31.8994 18.8164 32.3552 19.2684 32.6722 19.6717C33.493 20.7107 33.8957 21.8717 33.8512 23.062C33.8237 23.7693 33.6541 24.3189 33.3097 24.8035C32.5265 25.9092 30.8815 26.5856 28.0043 26.9873C26.3747 27.2133 24.5445 27.3385 21.6211 27.4214C20.67 27.4475 16.5831 27.4588 15.375 27.4377C12.371 27.3857 10.3575 27.2735 8.58049 27.0605C4.8808 26.6198 3.00096 25.7645 2.38578 24.2409C2.27097 23.9547 2.2127 23.7108 2.16986 23.3384C2.14416 23.1173 2.15958 22.4636 2.19728 22.2165C2.32237 21.366 2.65996 20.5709 3.20831 19.8262C3.57674 19.3286 4 18.8993 4.58434 18.4294C4.69402 18.3416 4.8054 18.2473 4.82939 18.2229C4.95448 18.0944 5.07101 17.8505 5.09157 17.6798C5.09671 17.631 5.11042 17.4408 5.11899 17.257C5.13784 16.9009 5.1704 16.5399 5.21324 16.2245C5.28693 15.6863 5.44801 14.9253 5.57653 14.522L5.62108 14.3822L5.80272 14.3724C6.43162 14.3366 6.62869 14.3236 7.00397 14.2879C12.2391 13.7935 16.4768 11.3577 17.601 8.19506C17.8306 7.54952 17.9368 6.81292 17.8837 6.24543C17.8614 6.00477 17.8614 5.99014 17.8888 5.98201C17.9728 5.96249 19.0078 6.0129 19.5391 6.06331C20.9665 6.19827 22.4591 6.58364 23.7614 7.15113C24.0938 7.29585 24.1898 7.32512 24.3732 7.33488C24.8033 7.35602 25.2026 7.13975 25.3876 6.78365C25.4802 6.60641 25.4922 6.55275 25.511 6.23242C25.5316 5.90721 25.5676 5.64867 25.6241 5.41289C25.8212 4.59499 26.2907 3.84538 26.9247 3.34131C27.4525 2.92016 28.102 2.64861 28.7943 2.55918C29.0051 2.53154 29.6391 2.54942 29.8653 2.58845Z" fill="#F4BF04"/>
<path d="M12.9304 15.2166C12.4215 15.3255 12.0411 15.6573 11.892 16.1272C11.8508 16.254 11.8457 16.3012 11.8457 16.4849C11.8457 16.6687 11.8508 16.7158 11.892 16.8426C11.9502 17.0231 12.0342 17.1744 12.149 17.3028C12.3392 17.5142 12.5466 17.6443 12.819 17.7223C12.9527 17.7614 13.0024 17.7662 13.196 17.7662C13.3897 17.7662 13.4394 17.7614 13.573 17.7223C14.0391 17.589 14.387 17.2508 14.5172 16.802C14.5652 16.641 14.5618 16.3142 14.5104 16.1467C14.375 15.6995 14.0271 15.3678 13.561 15.2394C13.3965 15.1955 13.0864 15.1841 12.9304 15.2166Z" fill="#F4BF04"/>
<path d="M22.5735 15.2079C22.2976 15.2567 22.056 15.3787 21.8435 15.5803C21.5899 15.821 21.4716 16.0746 21.4562 16.4128C21.4442 16.634 21.4665 16.7722 21.5384 16.9494C21.703 17.3543 22.0817 17.6568 22.5375 17.7462C22.6232 17.7625 22.7431 17.7771 22.8048 17.7771C23.3497 17.7771 23.8741 17.434 24.0712 16.9494C24.1431 16.7722 24.1654 16.634 24.1534 16.4128C24.138 16.0746 24.0198 15.821 23.7661 15.5803C23.5005 15.3283 23.2178 15.2096 22.8562 15.1998C22.7483 15.1966 22.6215 15.1998 22.5735 15.2079Z" fill="#F4BF04"/>
<path d="M16.2139 20.6259C16.1248 20.6991 16.1231 20.9088 16.2071 21.1478C16.3339 21.5088 16.7092 21.8828 17.1427 22.0763L17.2472 22.1235L17.1736 22.2097C17.1324 22.2568 17.0707 22.3446 17.0365 22.4064C16.8737 22.6893 16.8068 22.7804 16.668 22.9154C16.375 23.1983 16.0254 23.3381 15.6142 23.3381C15.4257 23.3381 15.2629 23.3024 15.1001 23.2259C14.927 23.1446 14.8225 23.0454 14.7231 22.8747C14.5534 22.5788 14.3427 22.4129 14.0257 22.33C13.5887 22.2145 13.102 22.395 12.8484 22.7674C12.6411 23.0715 12.6291 23.465 12.8141 23.8129C13.0969 24.3447 13.5493 24.769 14.1285 25.0439C14.5346 25.2374 14.9202 25.3349 15.4154 25.3723C16.2585 25.4357 17.1804 25.1577 17.8607 24.6357L17.9995 24.53L18.1263 24.626C19.0311 25.3121 20.2221 25.5512 21.2931 25.2585C22.1362 25.0276 22.7959 24.53 23.1695 23.8438C23.274 23.652 23.3169 23.4975 23.3169 23.3137C23.3169 23.0259 23.2192 22.8048 22.9998 22.5967C22.7685 22.3788 22.5218 22.2877 22.1945 22.3023C21.8037 22.3202 21.4833 22.517 21.2931 22.8552C21.108 23.1853 20.803 23.3381 20.3318 23.3381C20.1073 23.3381 19.9719 23.3121 19.7954 23.2341C19.4561 23.0845 19.2333 22.8715 19.0071 22.4763C18.954 22.382 18.8769 22.2649 18.8358 22.2145L18.7604 22.1235L18.8495 22.0844C19.1271 21.9625 19.4612 21.6909 19.6309 21.4503C19.8211 21.182 19.9068 20.8519 19.8297 20.6795C19.7731 20.5478 19.6652 20.5673 19.1528 20.8015C18.5427 21.0795 18.2017 21.1592 17.8042 21.1121C17.5146 21.0779 17.2952 21.0064 16.7777 20.7722C16.3493 20.5787 16.291 20.5641 16.2139 20.6259Z" fill="#F4BF04"/>
</svg>
