<svg width="35" height="36" viewBox="0 0 35 36" fill="none" xmlns="http://www.w3.org/2000/svg">
<path d="M-0.00830078 17.2102C-0.00830078 9.29056 -0.00830078 5.33076 2.40376 2.87046C4.81582 0.410156 8.69798 0.410156 16.4623 0.410156H18.5211C26.2854 0.410156 30.1676 0.410156 32.5796 2.87046C34.9917 5.33076 34.9917 9.29056 34.9917 17.2102V18.6102C34.9917 26.5298 34.9917 30.4896 32.5796 32.9499C30.1676 35.4102 26.2854 35.4102 18.5211 35.4102H16.4623C8.69798 35.4102 4.81582 35.4102 2.40376 32.9499C-0.00830078 30.4896 -0.00830078 26.5298 -0.00830078 18.6102V17.2102Z" fill="#805BEB" fill-opacity="0.15"/>
<path d="M19.0203 8.41139C19.75 8.40859 20.4797 8.41592 21.2093 8.43339L21.4033 8.44039C21.6273 8.44839 21.8483 8.45839 22.1153 8.47039C23.1793 8.52039 23.9053 8.68839 24.5423 8.93539C25.2023 9.18939 25.7583 9.53339 26.3143 10.0894C26.8226 10.589 27.2161 11.1933 27.4673 11.8604C27.7143 12.4974 27.8823 13.2244 27.9323 14.2884C27.9443 14.5544 27.9543 14.7764 27.9623 15.0004L27.9683 15.1944C27.986 15.9236 27.9937 16.653 27.9913 17.3824L27.9923 18.1284V19.4384C27.9947 20.1681 27.9871 20.8979 27.9693 21.6274L27.9633 21.8214C27.9553 22.0454 27.9453 22.2664 27.9333 22.5334C27.8833 23.5974 27.7133 24.3234 27.4673 24.9604C27.2169 25.6281 26.8234 26.233 26.3143 26.7324C25.8142 27.2407 25.2096 27.6341 24.5423 27.8854C23.9053 28.1324 23.1793 28.3004 22.1153 28.3504C21.8483 28.3624 21.6273 28.3724 21.4033 28.3804L21.2093 28.3864C20.4797 28.4042 19.75 28.4118 19.0203 28.4094L18.2743 28.4104H16.9653C16.2355 28.4129 15.5058 28.4052 14.7763 28.3874L14.5823 28.3814C14.3449 28.3728 14.1075 28.3628 13.8703 28.3514C12.8063 28.3014 12.0803 28.1314 11.4423 27.8854C10.775 27.6347 10.1705 27.2412 9.67128 26.7324C9.16232 26.2327 8.7685 25.6279 8.51728 24.9604C8.27028 24.3234 8.10228 23.5974 8.05228 22.5334C8.04114 22.2961 8.03114 22.0588 8.02228 21.8214L8.01728 21.6274C7.99884 20.8979 7.99051 20.1681 7.99228 19.4384V17.3824C7.98949 16.653 7.99682 15.9236 8.01428 15.1944L8.02128 15.0004C8.02928 14.7764 8.03928 14.5544 8.05128 14.2884C8.10128 13.2234 8.26928 12.4984 8.51628 11.8604C8.76765 11.193 9.16224 10.5888 9.67228 10.0904C10.1712 9.58114 10.7752 9.18696 11.4423 8.93539C12.0803 8.68839 12.8053 8.52039 13.8703 8.47039L14.5823 8.44039L14.7763 8.43539C15.5055 8.41696 16.2349 8.40863 16.9643 8.41039L19.0203 8.41139ZM17.9923 13.4114C17.3298 13.402 16.672 13.5244 16.0573 13.7715C15.4425 14.0185 14.8829 14.3853 14.4111 14.8504C13.9393 15.3156 13.5647 15.8699 13.309 16.4811C13.0532 17.0924 12.9216 17.7483 12.9216 18.4109C12.9216 19.0734 13.0532 19.7294 13.309 20.3406C13.5647 20.9518 13.9393 21.5062 14.4111 21.9713C14.8829 22.4365 15.4425 22.8033 16.0573 23.0503C16.672 23.2974 17.3298 23.4198 17.9923 23.4104C19.3184 23.4104 20.5901 22.8836 21.5278 21.9459C22.4655 21.0082 22.9923 19.7365 22.9923 18.4104C22.9923 17.0843 22.4655 15.8125 21.5278 14.8749C20.5901 13.9372 19.3184 13.4114 17.9923 13.4114ZM17.9923 15.4114C18.3908 15.404 18.7868 15.4762 19.1571 15.6236C19.5274 15.771 19.8646 15.9907 20.1491 16.2699C20.4335 16.5491 20.6594 16.8822 20.8137 17.2497C20.968 17.6172 21.0475 18.0118 21.0475 18.4104C21.0476 18.809 20.9683 19.2035 20.8141 19.5711C20.66 19.9387 20.4341 20.2718 20.1498 20.5511C19.8654 20.8304 19.5283 21.0503 19.158 21.1978C18.7877 21.3453 18.3918 21.4176 17.9933 21.4104C17.1976 21.4104 16.4346 21.0943 15.872 20.5317C15.3093 19.9691 14.9933 19.206 14.9933 18.4104C14.9933 17.6147 15.3093 16.8517 15.872 16.2891C16.4346 15.7265 17.1976 15.4104 17.9933 15.4104L17.9923 15.4114ZM23.2423 11.9114C22.9197 11.9243 22.6146 12.0615 22.3909 12.2944C22.1672 12.5272 22.0423 12.8375 22.0423 13.1604C22.0423 13.4833 22.1672 13.7936 22.3909 14.0264C22.6146 14.2592 22.9197 14.3965 23.2423 14.4094C23.5738 14.4094 23.8917 14.2777 24.1262 14.0433C24.3606 13.8088 24.4923 13.4909 24.4923 13.1594C24.4923 12.8279 24.3606 12.5099 24.1262 12.2755C23.8917 12.0411 23.5738 11.9094 23.2423 11.9094V11.9114Z" fill="url(#paint0_linear_1312_5740)"/>
<defs>
<linearGradient id="paint0_linear_1312_5740" x1="17.9922" y1="8.41016" x2="17.9922" y2="28.4108" gradientUnits="userSpaceOnUse">
<stop stop-color="#4EAF90"/>
<stop offset="1" stop-color="#B2D5B2"/>
</linearGradient>
</defs>
</svg>
