<svg width="50" height="51" viewBox="0 0 50 51" fill="none" xmlns="http://www.w3.org/2000/svg">
<path d="M16.005 15.8287C13.6374 14.7063 12 12.2944 12 9.5C12 5.63401 15.134 2.5 19 2.5C22.866 2.5 26 5.63401 26 9.5C26 12.2944 24.3626 14.7063 21.995 15.8287" stroke="#DFFE00" stroke-width="2" stroke-miterlimit="10" stroke-linecap="round" stroke-linejoin="round"/>
<path d="M16 25.5C16 23.843 14.657 22.5 13 22.5C11.343 22.5 10 23.843 10 25.5V32.5C10 40.784 16.716 47.5 25 47.5C33.284 47.5 40 40.784 40 32.5V25.5C40 23.843 38.657 22.5 37 22.5C35.343 22.5 34 23.843 34 25.5V23.5C34 21.843 32.657 20.5 31 20.5C29.343 20.5 28 21.843 28 23.5V21.5C28 19.843 26.657 18.5 25 18.5C23.343 18.5 22 19.843 22 21.5V9.5C22 7.843 20.657 6.5 19 6.5C17.343 6.5 16 7.843 16 9.5V31.5V25.5Z" stroke="#0EE520" stroke-width="4" stroke-miterlimit="10" stroke-linecap="round" stroke-linejoin="round"/>
</svg>
