<svg width="18" height="17" viewBox="0 0 18 17" fill="none" xmlns="http://www.w3.org/2000/svg">
<g clip-path="url(#clip0_1312_6265)">
<path d="M2.92307 12.7009C3.03313 12.5762 3.18234 12.5061 3.33792 12.5061H17.6926C17.9541 12.5061 18.085 12.8647 17.9 13.0743L15.0635 16.2879C14.9535 16.4127 14.8043 16.4827 14.6487 16.4827H0.294044C0.0325468 16.4827 -0.0983579 16.1242 0.0866219 15.9146L2.92307 12.7009Z" fill="url(#paint0_linear_1312_6265)"/>
<path d="M2.92307 0.694733C3.03313 0.570043 3.18234 0.5 3.33792 0.5H17.6926C17.9541 0.5 18.085 0.858551 17.9 1.06813L15.0635 4.28184C14.9535 4.40652 14.8043 4.47657 14.6487 4.47657H0.294044C0.0325468 4.47657 -0.0983579 4.11801 0.0866219 3.90844L2.92307 0.694733Z" fill="url(#paint1_linear_1312_6265)"/>
<path d="M15.0635 6.65956C14.9535 6.53484 14.8043 6.46484 14.6487 6.46484H0.294044C0.0325468 6.46484 -0.0983579 6.82336 0.0866219 7.03295L2.92307 10.2466C3.03313 10.3714 3.18234 10.4414 3.33792 10.4414H17.6926C17.9541 10.4414 18.085 10.0828 17.9 9.87325L15.0635 6.65956Z" fill="url(#paint2_linear_1312_6265)"/>
</g>
<defs>
<linearGradient id="paint0_linear_1312_6265" x1="12.16" y1="-3.8842" x2="0.123343" y2="16.4483" gradientUnits="userSpaceOnUse">
<stop stop-color="#00FFA3"/>
<stop offset="1" stop-color="#DC1FFF"/>
</linearGradient>
<linearGradient id="paint1_linear_1312_6265" x1="12.16" y1="-3.88415" x2="0.123345" y2="16.4483" gradientUnits="userSpaceOnUse">
<stop stop-color="#00FFA3"/>
<stop offset="1" stop-color="#DC1FFF"/>
</linearGradient>
<linearGradient id="paint2_linear_1312_6265" x1="12.16" y1="-3.88418" x2="0.123344" y2="16.4483" gradientUnits="userSpaceOnUse">
<stop stop-color="#00FFA3"/>
<stop offset="1" stop-color="#DC1FFF"/>
</linearGradient>
<clipPath id="clip0_1312_6265">
<rect width="18" height="16" fill="white" transform="translate(0 0.5)"/>
</clipPath>
</defs>
</svg>
