<svg width="11" height="11" viewBox="0 0 11 11" fill="none" xmlns="http://www.w3.org/2000/svg">
<path fill-rule="evenodd" clip-rule="evenodd" d="M10.9062 9.53586C10.6934 9.15176 6.3964 1.47532 6.02886 0.819957C5.78734 0.389828 5.2118 0.396881 4.97005 0.819957C4.70048 1.2916 0.381667 8.99739 0.0813922 9.55529C-0.138602 9.96402 0.104424 10.5 0.605064 10.5H10.3795C10.8341 10.5 11.172 10.0152 10.9062 9.53586ZM5.50038 9.48711C5.16272 9.48711 4.8889 9.20386 4.8889 8.85413C4.8889 8.50447 5.16272 8.22114 5.50038 8.22114C5.83815 8.22114 6.11184 8.50447 6.11184 8.85413C6.11184 9.20386 5.83815 9.48711 5.50038 9.48711ZM5.86723 7.46162C5.86723 7.71477 5.74492 7.84145 5.50038 7.84145C5.25579 7.84145 5.13346 7.71484 5.13346 7.46162L4.76656 3.79035C4.76656 3.41054 5.01113 3.03073 5.50038 3.03073C5.98947 3.03073 6.23415 3.41054 6.23415 3.79035L5.86723 7.46162Z" fill="black"/>
</svg>
