<svg width="10" height="9" viewBox="0 0 10 9" fill="none" xmlns="http://www.w3.org/2000/svg">
<path fill-rule="evenodd" clip-rule="evenodd" d="M9.0648 7.94259C8.88794 7.63206 5.31646 1.42617 5.01097 0.89636C4.81023 0.548629 4.33186 0.554331 4.13092 0.89636C3.90687 1.27765 0.317227 7.50727 0.0676503 7.95829C-0.115201 8.28872 0.0867931 8.72203 0.502907 8.72203H8.62709C9.00491 8.72203 9.28577 8.33009 9.0648 7.94259ZM4.57171 7.90317C4.29107 7.90317 4.06347 7.67418 4.06347 7.39145C4.06347 7.10877 4.29107 6.87972 4.57171 6.87972C4.85246 6.87972 5.07994 7.10877 5.07994 7.39145C5.07994 7.67418 4.85246 7.90317 4.57171 7.90317ZM4.87663 6.2657C4.87663 6.47035 4.77497 6.57277 4.57171 6.57277C4.36842 6.57277 4.26675 6.47041 4.26675 6.2657L3.96179 3.29772C3.96179 2.99067 4.16507 2.68362 4.57171 2.68362C4.97823 2.68362 5.1816 2.99067 5.1816 3.29772L4.87663 6.2657Z" fill="black"/>
</svg>
