<svg width="14" height="15" viewBox="0 0 14 15" fill="none" xmlns="http://www.w3.org/2000/svg">
<path d="M3.42408 4.96321C1.94812 5.29741 1.21014 5.46421 1.03434 6.02881C0.859144 6.59282 1.36193 7.18142 2.36811 8.35802L2.6285 8.66222C2.9141 8.99642 3.05749 9.16382 3.12169 9.37022C3.18589 9.57722 3.16429 9.80042 3.12109 10.2462L3.08149 10.6524C2.9297 12.2226 2.8535 13.0074 3.31309 13.356C3.77268 13.7052 4.46386 13.3866 5.84503 12.7506L6.20322 12.5862C6.59561 12.405 6.7918 12.315 7 12.315C7.20819 12.315 7.40439 12.405 7.79738 12.5862L8.15437 12.7506C9.53614 13.3866 10.2273 13.7046 10.6863 13.3566C11.1465 13.0074 11.0703 12.2226 10.9185 10.6524M11.6319 8.35802C12.6381 7.18202 13.1409 6.59342 12.9657 6.02881C12.7899 5.46421 12.0519 5.29681 10.5759 4.96321L10.1943 4.87681C9.77493 4.78201 9.56554 4.73461 9.39694 4.60681C9.22895 4.47901 9.12095 4.28521 8.90495 3.89761L8.70816 3.54481C7.94798 2.1816 7.56819 1.5 7 1.5C6.43181 1.5 6.05202 2.1816 5.29184 3.54481" stroke="#C88300" stroke-width="1.5" stroke-linecap="round"/>
</svg>
