<svg width="15" height="15" viewBox="0 0 15 15" fill="none" xmlns="http://www.w3.org/2000/svg">
<path d="M3.92408 4.96321C2.44812 5.29741 1.71014 5.46421 1.53434 6.02881C1.35914 6.59282 1.86193 7.18142 2.86811 8.35802L3.1285 8.66222C3.4141 8.99642 3.55749 9.16382 3.62169 9.37022C3.68589 9.57722 3.66429 9.80042 3.62109 10.2462L3.58149 10.6524C3.4297 12.2226 3.3535 13.0074 3.81309 13.356C4.27268 13.7052 4.96386 13.3866 6.34503 12.7506L6.70322 12.5862C7.09561 12.405 7.2918 12.315 7.5 12.315C7.70819 12.315 7.90439 12.405 8.29738 12.5862L8.65437 12.7506C10.0361 13.3866 10.7273 13.7046 11.1863 13.3566C11.6465 13.0074 11.5703 12.2226 11.4185 10.6524M12.1319 8.35802C13.1381 7.18202 13.6409 6.59342 13.4657 6.02881C13.2899 5.46421 12.5519 5.29681 11.0759 4.96321L10.6943 4.87681C10.2749 4.78201 10.0655 4.73461 9.89694 4.60681C9.72895 4.47901 9.62095 4.28521 9.40495 3.89761L9.20816 3.54481C8.44798 2.1816 8.06819 1.5 7.5 1.5C6.93181 1.5 6.55202 2.1816 5.79184 3.54481" stroke="#C88300" stroke-width="1.5" stroke-linecap="round"/>
</svg>
