<svg width="36" height="28" viewBox="0 0 36 28" fill="none" xmlns="http://www.w3.org/2000/svg">
<path d="M2.92219 26.0389C1.42067 24.9837 0.310317 23.6603 0.0605623 21.8495C-0.0708307 20.8968 0.0371161 19.8977 0.143004 18.931C0.265369 17.8138 0.658552 16.7672 1.18113 15.7576C1.36843 15.3958 1.326 14.9135 1.3705 14.4844C1.53071 12.9395 1.97109 11.4652 2.54245 10.0291C3.25426 8.2399 4.18072 6.55882 5.45491 5.10286C6.81299 3.55103 8.39577 2.2508 10.5381 1.98334C11.5829 1.8529 12.6681 1.95669 13.7276 2.04365C15.1557 2.16086 16.4053 2.87689 17.7369 3.32142C18.4085 3.54564 19.13 3.65969 19.8384 3.73197C20.8923 3.83949 21.9331 3.74366 22.9226 3.30356C23.4953 3.04884 23.5366 2.99761 23.4215 2.39003C23.3002 1.74986 23.6561 0.48167 24.2795 0.180692C24.7832 -0.0624931 25.2914 -0.0149605 25.803 0.063382C26.7025 0.201098 27.4714 0.660622 28.261 1.07092C28.4743 1.18179 28.7283 1.26903 28.9655 1.27373C30.6014 1.30615 32.2115 1.51485 33.743 2.08651C34.3389 2.30893 34.8824 2.6974 35.408 3.06821C36.111 3.56424 36.0972 4.77922 35.8322 5.4012C35.4061 6.40168 34.64 7.11309 33.8004 7.74741C32.5644 8.68126 31.169 9.28059 29.631 9.55234C29.5073 9.57419 29.3674 9.71352 29.3049 9.83376C28.7511 10.8984 28.2455 11.9887 27.6597 13.0353C27.2405 13.7841 26.705 14.4682 25.9511 14.9336C25.6394 15.126 25.6776 15.4136 25.7334 15.6692C25.758 15.7814 25.9841 15.8953 26.1363 15.9278C26.8715 16.0845 27.5827 16.2796 28.1836 16.7615C28.9418 17.3697 29.0921 18.2586 28.8197 19.0433C28.6452 19.5457 28.1158 19.6823 27.6283 19.6922C26.3229 19.7189 25.0164 19.7138 23.711 19.6889C23.5133 19.6851 23.2807 19.5473 23.1298 19.404C22.3963 18.7077 21.6856 17.9879 20.9657 17.2776C20.7677 17.0823 19.9765 17.1096 19.8197 17.3285C19.7804 17.3833 19.8121 17.4938 19.8236 17.577C19.8542 17.7977 19.8999 18.0166 19.925 18.2378C20.0519 19.356 19.3619 19.6841 18.4656 19.6985C17.2402 19.7183 16.0143 19.7037 14.7887 19.7037C12.8885 19.7037 10.9883 19.6931 9.0883 19.709C8.3683 19.715 7.85688 19.3805 7.49534 18.8203C7.3183 18.5459 7.1057 18.4433 6.81232 18.4367C6.46457 18.4289 6.11436 18.4579 5.76918 18.4272C5.33904 18.3891 5.01405 18.5403 4.7572 18.8656C4.25304 19.5042 3.83442 20.2062 3.97633 21.0343C4.04361 21.427 4.33411 21.8213 4.61715 22.1312C5.34852 22.9319 6.2645 23.497 7.24424 23.9646C8.15396 24.3987 9.09494 24.738 10.1165 24.7073C10.949 24.6823 11.7871 24.6278 12.6087 24.499C14.7422 24.1647 16.8164 23.5838 18.869 22.925C19.3057 22.7848 19.7054 22.8812 19.8485 23.1341C20.0264 23.4488 19.9397 23.8511 19.6201 24.1744C17.657 26.1606 15.2842 27.3751 12.5141 27.804C10.149 28.1703 7.79989 28.0367 5.52654 27.2887C4.62742 26.9929 3.80337 26.4739 2.92219 26.0389ZM12.4955 3.26771C12.2814 3.26654 12.066 3.28071 11.8535 3.26161C10.8234 3.16901 9.87244 3.43812 8.98669 3.92011C7.41448 4.77564 6.29079 6.08957 5.3552 7.56508C4.41721 9.04436 3.66643 10.6177 3.22763 12.3149C2.99446 13.2167 2.79154 14.1343 2.68548 15.0573C2.61862 15.6391 2.56028 16.1788 2.26656 16.712C1.49848 18.1062 1.339 19.6335 1.37273 21.1967C1.38685 21.8512 1.57209 22.4449 1.89006 23.0014C2.69905 24.4171 3.99925 25.2417 5.47606 25.8213C7.14443 26.476 8.88712 26.6677 10.6778 26.6258C12.0026 26.5949 13.2642 26.3295 14.4986 25.894C14.9154 25.7469 15.3129 25.546 15.7192 25.3697C14.3347 25.5506 12.9821 25.8042 11.6202 25.9916C10.5602 26.1375 9.48814 26.1367 8.44376 25.8541C6.48454 25.3238 4.78502 24.3492 3.41415 22.8567C2.99279 22.398 2.63496 21.8799 2.58554 21.2256C2.50256 20.1269 2.83125 19.148 3.47302 18.2593C3.99747 17.5331 4.63 17.0513 5.60951 17.1528C6.1522 17.2091 6.70572 17.166 7.25433 17.1624C7.80002 17.1589 8.25214 17.4156 8.48992 17.8476C8.75625 18.3315 9.1283 18.433 9.60341 18.433C12.1592 18.4331 14.7151 18.4383 17.2708 18.4277C17.6888 18.4259 18.1064 18.3538 18.5593 18.3109C18.4727 17.9213 18.2586 17.6782 17.9471 17.5845C17.4557 17.4366 16.9496 17.3012 16.4408 17.2528C15.6141 17.1741 15.3645 16.9835 15.353 16.2176C15.3334 14.9004 14.9108 13.7157 14.1811 12.6269C13.7214 11.941 13.1853 11.3297 12.492 10.8592C12.1274 10.6118 12.0222 10.1113 12.2415 9.81251C12.4503 9.52811 12.9238 9.44533 13.2361 9.7257C13.8931 10.3154 14.5726 10.9005 15.1222 11.5825C16.0553 12.7405 16.4983 14.1237 16.7173 15.5797C16.7335 15.6871 16.8125 15.8486 16.8957 15.8728C17.8295 16.1452 18.7667 16.2527 19.7197 15.9224C19.9965 15.8265 20.0601 15.7295 19.9227 15.4756C19.7214 15.1033 19.5274 14.726 19.3536 14.3406C19.1749 13.9444 19.2889 13.54 19.5884 13.4073C19.997 13.2262 20.3689 13.3637 20.5793 13.7759C20.8439 14.2946 21.0997 14.8178 21.3733 15.3317C21.5338 15.6331 21.6761 15.9621 21.9057 16.2058C22.5529 16.8929 23.2336 17.5498 23.9194 18.1997C24.0485 18.322 24.2596 18.4149 24.4371 18.4222C25.0783 18.4485 25.7217 18.4473 26.3634 18.4268C26.7527 18.4144 27.1402 18.3473 27.5529 18.3021C27.4322 17.825 27.1216 17.5923 26.739 17.4975C26.1618 17.3545 25.5714 17.2556 24.9817 17.1721C24.5892 17.1165 24.4196 16.9228 24.4226 16.5426C24.4277 15.8942 24.4287 15.2457 24.4221 14.5974C24.419 14.2982 24.5391 14.1 24.8237 13.9831C25.398 13.7473 25.7856 13.2976 26.141 12.8175C27.038 11.6055 27.6621 10.2534 28.1942 8.85714C28.3282 8.50547 28.5048 8.27976 28.9241 8.24843C30.0841 8.16171 31.1547 7.79084 32.149 7.19141C33.0209 6.66576 33.8326 6.08242 34.3871 5.20602C34.8001 4.55339 34.7151 4.11552 34.0531 3.71412C33.8616 3.59795 33.6492 3.51206 33.4398 3.42837C32.0126 2.85799 30.5131 2.67552 28.9895 2.63408C28.4367 2.61905 27.9204 2.54983 27.4472 2.20341C27.1091 1.95591 26.703 1.78515 26.3062 1.63455C25.9642 1.50479 25.5957 1.42766 25.2318 1.37976C25.1223 1.36535 24.9318 1.49925 24.8764 1.61221C24.5923 2.19143 24.9096 3.45741 25.4171 3.87345C25.7245 4.12547 25.8089 4.6645 25.5816 4.92452C25.383 5.15173 24.8327 5.15444 24.545 4.93124C24.3351 4.76843 24.1234 4.60789 23.9125 4.44633C23.889 4.38548 23.7939 4.43119 23.6938 4.45937C22.9416 4.67109 22.1993 4.99355 21.4331 5.06586C19.6182 5.23717 17.8472 4.99233 16.1759 4.19849C15.0395 3.65875 13.8431 3.31383 12.4955 3.26771Z" fill="#000818"/>
<path d="M12.5746 3.08669C13.8733 3.13354 15.06 3.48411 16.1871 4.03271C17.8449 4.83956 19.6015 5.08841 21.4017 4.9143C22.1617 4.8408 22.8979 4.51305 23.644 4.29786C23.7433 4.26922 23.8376 4.22276 23.8609 4.28461C24.0701 4.44881 24.2801 4.61199 24.4883 4.77747C24.7737 5.00433 25.3195 5.00157 25.5165 4.77063C25.7419 4.50635 25.6582 3.95848 25.3533 3.70234C24.85 3.27948 24.5352 1.99274 24.817 1.40401C24.872 1.2892 25.0609 1.1531 25.1696 1.16776C25.5305 1.21644 25.896 1.29483 26.2352 1.42672C26.6288 1.57979 27.0316 1.75335 27.367 2.00491C27.8363 2.35701 28.3485 2.42736 28.8967 2.44264C30.408 2.48476 31.8953 2.67023 33.3109 3.24996C33.5186 3.33502 33.7292 3.42232 33.9193 3.54039C34.5759 3.94837 34.6601 4.39343 34.2505 5.05675C33.7005 5.94753 32.8954 6.54043 32.0306 7.07469C31.0443 7.68395 29.9825 8.06091 28.8318 8.14905C28.416 8.1809 28.2408 8.41031 28.1079 8.76774C27.5801 10.1869 26.9611 11.5612 26.0713 12.793C25.7188 13.281 25.3343 13.7381 24.7648 13.9778C24.4825 14.0966 24.3633 14.298 24.3664 14.6021C24.3729 15.2611 24.3719 15.9202 24.3669 16.5792C24.364 16.9657 24.5321 17.1625 24.9215 17.219C25.5064 17.3039 26.0919 17.4045 26.6645 17.5498C27.0439 17.6461 27.3521 17.8826 27.4718 18.3676C27.0624 18.4135 26.678 18.4817 26.2919 18.4944C25.6555 18.5152 25.0173 18.5164 24.3813 18.4897C24.2053 18.4823 23.9958 18.3878 23.8677 18.2635C23.1875 17.6029 22.5123 16.9352 21.8704 16.2369C21.6427 15.9892 21.5015 15.6548 21.3423 15.3485C21.0709 14.8261 20.8172 14.2944 20.5548 13.7672C20.3462 13.3482 19.9772 13.2084 19.5719 13.3925C19.2749 13.5273 19.1618 13.9384 19.339 14.3411C19.5114 14.7329 19.7039 15.1163 19.9036 15.4947C20.0398 15.7528 19.9767 15.8514 19.7022 15.9489C18.7569 16.2846 17.8273 16.1753 16.9011 15.8985C16.8186 15.8738 16.7402 15.7096 16.7242 15.6006C16.5069 14.1206 16.0675 12.7148 15.142 11.5378C14.5969 10.8446 13.9228 10.2499 13.2712 9.65055C12.9614 9.36557 12.4918 9.44971 12.2847 9.73878C12.0672 10.0424 12.1715 10.5511 12.5332 10.8026C13.2209 11.2808 13.7525 11.9022 14.2085 12.5993C14.9323 13.706 15.3514 14.91 15.371 16.2489C15.3823 17.0273 15.6299 17.2211 16.4499 17.301C16.9546 17.3503 17.4565 17.4879 17.944 17.6382C18.253 17.7334 18.4653 17.9805 18.5512 18.3765C18.1019 18.4201 17.6877 18.4934 17.2732 18.4952C14.7382 18.5061 12.2031 18.5007 9.668 18.5006C9.19676 18.5006 8.82772 18.3975 8.56356 17.9056C8.32771 17.4665 7.87926 17.2056 7.338 17.2092C6.79385 17.2128 6.24481 17.2566 5.70653 17.1994C4.73497 17.0963 4.10757 17.586 3.58738 18.3241C2.95082 19.2273 2.6248 20.2223 2.7071 21.339C2.75612 22.004 3.11105 22.5306 3.52899 22.9969C4.88873 24.5138 6.57446 25.5044 8.51777 26.0434C9.55367 26.3306 10.6171 26.3315 11.6684 26.1832C13.0193 25.9927 14.3609 25.7349 15.7341 25.551C15.3311 25.7302 14.9369 25.9345 14.5234 26.0839C13.2991 26.5266 12.0477 26.7963 10.7337 26.8278C8.95753 26.8703 7.22899 26.6755 5.57416 26.01C4.10934 25.4209 2.81969 24.5828 2.01727 23.1439C1.70188 22.5783 1.51815 21.9749 1.50414 21.3097C1.47068 19.7208 1.62887 18.1684 2.39072 16.7514C2.68206 16.2095 2.73992 15.6609 2.80624 15.0695C2.91143 14.1315 3.11271 13.1988 3.34398 12.2822C3.77922 10.5572 4.5239 8.95803 5.45428 7.45449C6.38228 5.95479 7.49685 4.61932 9.05629 3.74976C9.93485 3.25986 10.8781 2.98634 11.8999 3.08046C12.1106 3.09987 12.3243 3.08547 12.5746 3.08669ZM30.3357 3.3336C30.2433 3.33216 30.1508 3.3285 30.0585 3.32968C29.6384 3.33502 29.2519 3.61329 29.162 3.97361C29.0411 4.45854 29.2143 4.93484 29.5957 5.16604C29.9043 5.35309 30.4786 5.29723 30.7458 5.05418C31.3297 4.52295 31.1627 3.69231 30.3357 3.3336Z" fill="#DFFE00"/>
</svg>
