<svg width="14" height="14" viewBox="0 0 14 14" fill="none" xmlns="http://www.w3.org/2000/svg">
<path d="M3.42408 4.46321C1.94812 4.79741 1.21014 4.96421 1.03434 5.52881C0.859144 6.09282 1.36193 6.68142 2.36811 7.85802L2.6285 8.16222C2.9141 8.49642 3.05749 8.66382 3.12169 8.87022C3.18589 9.07722 3.16429 9.30042 3.12109 9.74623L3.08149 10.1524C2.9297 11.7226 2.8535 12.5074 3.31309 12.856C3.77268 13.2052 4.46386 12.8866 5.84503 12.2506L6.20322 12.0862C6.59561 11.905 6.7918 11.815 7 11.815C7.20819 11.815 7.40439 11.905 7.79738 12.0862L8.15437 12.2506C9.53614 12.8866 10.2273 13.2046 10.6863 12.8566C11.1465 12.5074 11.0703 11.7226 10.9185 10.1524M11.6319 7.85802C12.6381 6.68202 13.1409 6.09342 12.9657 5.52881C12.7899 4.96421 12.0519 4.79681 10.5759 4.46321L10.1943 4.37681C9.77493 4.28201 9.56554 4.23461 9.39694 4.10681C9.22895 3.97901 9.12095 3.78521 8.90495 3.39761L8.70816 3.04481C7.94798 1.6816 7.56819 1 7 1C6.43181 1 6.05202 1.6816 5.29184 3.04481" stroke="#C88300" stroke-width="1.5" stroke-linecap="round"/>
</svg>
