<svg width="8" height="7" viewBox="0 0 8 7" fill="none" xmlns="http://www.w3.org/2000/svg">
<path fill-rule="evenodd" clip-rule="evenodd" d="M6.7126 1.0932H0.618314C0.449817 1.07985 0.293362 1.00718 0.181923 0.890408C0.0992025 0.831456 0.0433898 0.746365 0.0252862 0.651649C0.0146713 0.305634 0.447627 0.0664062 0.839188 0.0664062H5.87352C6.09586 0.0670352 6.30892 0.148345 6.46613 0.292624C6.62333 0.436903 6.71192 0.632464 6.7126 0.836501V1.0932ZM6.99216 1.60662H0.559372C0.411038 1.60662 0.268754 1.55254 0.163816 1.45627C0.0589329 1.35995 0 1.22936 0 1.09322V5.97051C0 6.17477 0.0884009 6.37063 0.245723 6.51508C0.403112 6.65948 0.616491 6.74059 0.839059 6.74059H6.99216C7.21471 6.74059 7.42808 6.65948 7.5855 6.51508C7.7428 6.37063 7.83121 6.17477 7.83121 5.97051V5.2004H6.43278C6.03312 5.2004 5.66376 5.00468 5.46395 4.68702C5.2641 4.36934 5.2641 3.97787 5.46395 3.66021C5.66376 3.34256 6.03312 3.14681 6.43278 3.14681H7.83121V2.37673C7.83121 2.17244 7.7428 1.97661 7.5855 1.83215C7.42811 1.68776 7.21471 1.60662 6.99216 1.60662ZM5.87408 4.17367C5.87408 4.30982 5.93299 4.4404 6.03789 4.53673C6.14281 4.63298 6.28512 4.68708 6.43343 4.68708H7.83188V3.66027H6.43343C6.28509 3.66027 6.14281 3.71437 6.03789 3.81062C5.93299 3.90695 5.87408 4.03753 5.87408 4.17367Z" fill="white" fill-opacity="0.25"/>
</svg>
