<svg width="8" height="8" viewBox="0 0 8 8" fill="none" xmlns="http://www.w3.org/2000/svg">
<path fill-rule="evenodd" clip-rule="evenodd" d="M6.73447 1.65168H0.620329C0.451283 1.6367 0.294318 1.5552 0.182516 1.42422C0.0995258 1.3581 0.0435312 1.26266 0.0253686 1.15642C0.0147191 0.768324 0.449086 0.5 0.841923 0.5H5.89267C6.11572 0.500705 6.32948 0.591904 6.4872 0.753731C6.64492 0.915557 6.7338 1.1349 6.73447 1.36376V1.65168ZM7.01495 2.22753H0.561195C0.412377 2.22753 0.26963 2.16688 0.16435 2.0589C0.059125 1.95087 0 1.8044 0 1.6517V7.12217C0 7.35127 0.088689 7.57095 0.246523 7.73298C0.404425 7.89493 0.6185 7.98591 0.841794 7.98591H7.01495C7.23822 7.98591 7.45229 7.89493 7.61022 7.73298C7.76803 7.57095 7.85673 7.35127 7.85673 7.12217V6.2584H6.45375C6.05278 6.2584 5.68222 6.03888 5.48175 5.68259C5.28125 5.32626 5.28125 4.88718 5.48175 4.53089C5.68222 4.1746 6.05278 3.95504 6.45375 3.95504H7.85673V3.0913C7.85673 2.86217 7.76803 2.64252 7.61022 2.4805C7.45232 2.31854 7.23822 2.22753 7.01495 2.22753ZM5.89322 5.1068C5.89322 5.2595 5.95233 5.40597 6.05756 5.51401C6.16283 5.62197 6.3056 5.68265 6.45439 5.68265H7.8574V4.53095H6.45439C6.30557 4.53095 6.16283 4.59164 6.05756 4.69959C5.95233 4.80764 5.89322 4.9541 5.89322 5.1068Z" fill="white" fill-opacity="0.25"/>
</svg>
