<svg width="20" height="20" viewBox="0 0 20 20" fill="none" xmlns="http://www.w3.org/2000/svg">
<path d="M8.19258 0.824844L7.76199 3.19661C7.34376 3.32809 6.93789 3.49837 6.55494 3.6978L4.56435 2.32839L2.00917 4.88357L3.38564 6.86708C3.18535 7.2509 3.01683 7.65416 2.88446 8.07416L0.512695 8.50473V12.1188L2.88446 12.5494C3.01681 12.9703 3.19152 13.3718 3.3927 13.7565L2.00917 15.74L4.56435 18.2952L6.54786 16.9257C6.93255 17.1269 7.34109 17.2946 7.76198 17.4269L8.19255 19.7987H11.8067L12.2372 17.4269C12.6572 17.2946 13.0605 17.1261 13.4443 16.9257L15.4279 18.2952L17.983 15.74L16.6065 13.7565C16.8059 13.3736 16.9763 12.9747 17.1077 12.5565L19.4865 12.1188V8.50473L17.1077 8.07416C16.9763 7.6568 16.8121 7.25621 16.6136 6.87416L17.983 4.88357L15.4279 2.32839L13.4443 3.6978C13.0605 3.49751 12.6572 3.32898 12.2372 3.19661L11.8067 0.824844H8.19258ZM9.99963 6.02014C12.3696 6.02014 14.2914 7.9419 14.2914 10.3119C14.2914 12.6819 12.3696 14.6037 9.99963 14.6037C7.62963 14.6037 5.70788 12.6819 5.70788 10.3119C5.70788 7.9419 7.62963 6.02014 9.99963 6.02014Z" fill="#E8F9FF" fill-opacity="0.8"/>
</svg>
