<svg width="36" height="22" viewBox="0 0 36 22" fill="none" xmlns="http://www.w3.org/2000/svg">
<path d="M27.3339 21.9436C18.6293 21.9398 10.0675 21.9446 1.50569 21.9245C1.00365 21.9233 0.50189 21.7213 0 21.6127C0.0219748 21.3089 0.0439516 21.0051 0.0659264 20.7012C1.45573 20.7012 2.85213 20.5902 4.23347 20.7329C5.57664 20.8717 6.17304 20.3717 6.58222 18.5057C7.05091 16.3684 6.88597 14.988 5.42016 13.8625C4.90403 13.4663 4.50137 12.8128 4.08736 12.3245C4.12648 12.0615 4.12268 11.8576 4.16437 11.8399C5.92345 11.0919 6.35917 9.08957 7.041 7.10712C8.70515 2.26844 13.8506 -0.740772 18.3352 0.1585C22.2519 0.943897 25.4677 3.1142 27.1538 7.73192C28.5645 7.20089 29.8364 6.38476 31.1337 6.30695C33.5226 6.16372 34.7822 9.02665 33.7685 11.9129C32.9243 14.3168 31.3271 15.3064 29.4777 15.7769C28.9765 15.9044 28.4648 15.9601 27.958 16.0488C27.9324 16.3383 27.8872 16.5251 27.9045 16.7012C28.2964 20.7007 28.2977 20.694 31.3608 20.704C32.7382 20.7085 34.1156 20.7367 35.4925 20.781C35.6001 20.7845 35.7038 21.0001 36 21.3284C34.5667 22.4455 33.1122 21.8062 31.7565 21.9142C30.3346 22.0275 28.9037 21.9442 27.3339 21.9436ZM21.7124 13.3207C19.9594 14.5164 18.0747 14.9556 16.1745 14.3976C14.3299 13.8559 12.5294 13.0165 10.7408 12.1898C9.04153 11.4045 7.38279 11.1147 5.42301 12.2063C6.30841 13.2055 7.03002 14.0199 7.59595 14.6586C8.39697 14.2636 8.96311 13.9844 9.52925 13.7052C9.67253 13.9279 9.8158 14.1506 9.95908 14.3733C7.87161 15.6512 7.40034 17.9769 7.17885 20.6194C8.43157 20.6194 9.59083 20.6194 10.83 20.6194C10.9491 19.8112 11.1366 19.0838 11.1485 18.3513C11.1784 16.5236 11.7388 16.4179 12.9487 16.9382C16.0171 18.258 19.1031 18.5113 22.0709 16.3349C22.2536 16.2009 22.5079 16.237 22.9276 16.1552C22.9742 17.3983 22.9563 18.5137 23.0871 19.5978C23.1369 20.0102 23.5113 20.6476 23.7673 20.6734C24.9247 20.7899 26.0926 20.7243 27.3249 20.7243C27.2036 17.4581 26.9926 14.611 23.943 13.882C25.1661 12.4885 25.839 13.5099 26.476 14.0035C28.4595 15.5405 31.9124 14.2189 32.8857 11.4743C33.6464 9.32928 32.772 7.25679 31.01 7.54955C29.8818 7.737 28.83 8.80727 27.7659 9.53755C27.4054 9.78501 27.0833 10.5345 26.7928 10.4904C24.7566 10.1812 23.4573 12.0702 21.7124 13.3207ZM14.5686 12.7641C16.9328 13.5275 19.2585 13.7308 21.4889 12.0666C23.0246 10.9208 24.5823 9.82649 26.2863 8.59636C25.6556 5.86093 23.9397 4.15597 21.9684 2.80336C20.6134 4.0565 19.6988 5.32466 20.821 7.47095C20.9807 7.77632 20.8431 8.35221 20.8431 9.0246C20.4858 8.72397 20.2854 8.65024 20.2635 8.52306C19.7608 5.59938 18.1296 5.69311 16.3356 5.66C14.9219 5.63391 13.9993 6.18917 13.2684 7.7042C13.0813 8.09188 12.6323 8.25959 12.3037 8.52836C12.2085 8.42315 12.1134 8.31795 12.0183 8.21275C12.6277 6.36069 14.765 4.68564 12.4855 2.53378C9.63818 3.70834 7.31692 7.21274 7.52648 9.69152C9.87432 10.7139 12.1111 11.6878 14.5686 12.7641ZM20.2443 18.6311C17.5502 19.627 14.909 18.975 12.1472 18.0127C12.0465 18.9642 11.9619 19.7641 11.8681 20.6501C15.3629 20.6501 18.6629 20.6501 22.1335 20.6501C22.0884 19.6825 22.0485 18.823 22.0027 17.8386C21.3546 18.1423 20.9134 18.3491 20.2443 18.6311ZM17.4077 1.28302C16.1691 1.41518 14.9304 1.54734 13.6918 1.67951C13.6236 1.91637 13.5555 2.15326 13.4874 2.39014C14.0511 3.10052 14.6253 4.42605 15.1767 4.40986C17.0926 4.35354 19.44 5.72644 20.7842 2.05353C19.6781 1.79207 18.671 1.55404 17.4077 1.28302Z" fill="#805BEB" fill-opacity="0.15"/>
<path d="M21.8076 13.2452C23.4607 12.0696 24.7601 10.1806 26.7963 10.4898C27.0867 10.5339 27.4088 9.78439 27.7694 9.53692C28.8335 8.80665 29.8853 7.73638 31.0135 7.54893C32.7754 7.25617 33.6499 9.32866 32.8892 11.4737C31.9158 14.2183 28.463 15.5399 26.4795 14.0029C25.8424 13.5093 25.1695 12.4879 23.9464 13.8814C26.996 14.6104 27.2071 17.4575 27.3283 20.7237C26.0961 20.7237 24.9281 20.7893 23.7707 20.6727C23.5148 20.647 23.1404 20.0096 23.0906 19.5972C22.9597 18.5131 22.9777 17.3977 22.9311 16.1546C22.5113 16.2364 22.2571 16.2003 22.0744 16.3343C19.1065 18.5107 16.0205 18.2574 12.9521 16.9376C11.7423 16.4172 11.1819 16.523 11.152 18.3507C11.14 19.0831 10.9526 19.8106 10.8334 20.6188C9.59429 20.6188 8.43503 20.6188 7.18231 20.6188C7.4038 17.9763 7.87508 15.6506 9.96254 14.3727C9.81926 14.15 9.67599 13.9273 9.53271 13.7046C8.96657 13.9838 8.40044 14.2629 7.59942 14.658C7.03348 14.0193 6.31187 13.2049 5.42647 12.2056C7.38625 11.114 9.045 11.4038 10.7443 12.1892C12.5328 13.0159 14.3334 13.8553 16.178 14.397C18.0782 14.9549 19.9629 14.5158 21.8076 13.2452Z" fill="#DFFE00"/>
<path d="M14.4559 12.7127C12.1088 11.6876 9.87202 10.7136 7.52419 9.69124C7.31463 7.21246 9.63589 3.70806 12.4832 2.5335C14.7627 4.68536 12.6254 6.36041 12.016 8.21247C12.1111 8.31767 12.2062 8.42287 12.3014 8.52807C12.63 8.25931 13.079 8.0916 13.2661 7.70392C13.997 6.18889 14.9196 5.63363 16.3333 5.65972C18.1273 5.69283 19.7585 5.5991 20.2612 8.52278C20.2831 8.64996 20.4835 8.72369 20.8408 9.02432C20.8408 8.35192 20.9784 7.77604 20.8188 7.47067C19.6965 5.32438 20.6111 4.05622 21.9661 2.80308C23.9374 4.15569 25.6533 5.86065 26.284 8.59608C24.58 9.82621 23.0223 10.9205 21.4867 12.0664C19.2562 13.7306 16.9305 13.5273 14.4559 12.7127Z" fill="#E6E7E7"/>
<path d="M20.3563 18.5935C20.9115 18.3491 21.3527 18.1423 22.0008 17.8386C22.0466 18.823 22.0866 19.6825 22.1316 20.6501C18.661 20.6501 15.3611 20.6501 11.8663 20.6501C11.96 19.7641 12.0447 18.9642 12.1453 18.0127C14.9071 18.975 17.5483 19.627 20.3563 18.5935Z" fill="#CFFAFB"/>
<path d="M17.5361 1.29733C18.6712 1.55185 19.6783 1.78989 20.7844 2.05134C19.4402 5.72426 17.0928 4.35135 15.1769 4.40767C14.6255 4.42387 14.0513 3.09833 13.4876 2.38795C13.5557 2.15107 13.6238 1.91419 13.692 1.67732C14.9306 1.54516 16.1693 1.413 17.5361 1.29733Z" fill="#DFFE00"/>
</svg>
